<svg width="211" height="262" viewBox="0 0 211 262" fill="none" xmlns="http://www.w3.org/2000/svg">
<path d="M130.75 0.677704C126.487 1.02927 120.628 2.45016 117.42 3.88571C116.189 4.44235 115.955 4.67673 115.955 5.30661C115.955 6.61032 117.669 10.6972 119.383 13.4511C124.437 21.6103 132.039 26.9717 140.623 28.4219C142.776 28.7881 146.629 28.8613 148.621 28.5683C150.862 28.2314 153.323 27.5869 155.213 26.8252C156.956 26.1074 159.388 24.7305 160.223 23.9687C160.735 23.5146 160.823 23.4707 161.131 23.6318C161.438 23.8076 161.453 23.8808 161.351 24.4228C161.028 26.0049 160.618 29.7988 160.53 31.791L160.442 34.0029L159.109 33.2119C156.429 31.6299 153.514 30.4873 150.818 29.9892C148.87 29.6377 145.179 29.6377 143.494 30.0039C140.667 30.6191 138.045 31.8056 135.789 33.5195C132.962 35.6582 131.321 37.4892 128.597 41.5322C127 43.9199 125.784 45.6777 123.689 48.6806C121.565 51.7422 118.562 55.4336 113.626 61.0732C109.173 66.1709 105.906 71.0049 103.05 76.6885C100.457 81.8887 98.9336 86.1953 97.8643 91.4394C95.8135 101.547 96.8389 111.786 100.867 121.205C104.573 129.906 110.843 137.201 118.694 141.977C120.643 143.163 124.729 145.126 126.824 145.873C127.85 146.239 128.772 146.547 128.875 146.547C129.241 146.547 128.729 146.811 127.015 147.543C123.646 148.964 119.588 150.194 116.761 150.648C115.691 150.824 115.53 150.81 115.032 150.575C113.875 150.033 110.11 146.078 106.302 141.42C104.705 139.472 104.295 139.149 103.636 139.281C103.255 139.354 103.182 139.296 102.918 138.783C102.552 138.051 102.01 137.685 101.277 137.685H100.721V136C100.721 133.29 100.105 131.503 98.582 129.862C98.1719 129.408 97.4395 128.412 96.9707 127.65C95.9307 125.98 93.9531 123.563 92.9131 122.699C91.9463 121.908 91.1992 121.688 90.3936 121.952C89.9395 122.113 89.7344 122.304 89.5 122.758L89.1924 123.358L88.6943 123.095C87.7715 122.597 86.7314 122.816 86.0869 123.637C85.8672 123.93 85.7793 124.237 85.7793 124.809C85.7793 125.526 85.7354 125.644 85.252 126.083C84.5928 126.684 84.4316 127.592 84.8125 128.603C85.0469 129.203 85.0469 129.276 84.8418 129.584C84.71 129.76 84.6074 130.141 84.6074 130.434C84.6074 130.902 84.5635 130.844 84.0947 129.789C83.4795 128.368 82.9961 127.65 82.0146 126.684C81.0479 125.717 79.8467 124.999 78.3818 124.486C77.3711 124.135 76.9902 124.076 75.5986 124.076C73.5771 124.091 72.1855 124.501 70.501 125.614C67.8203 127.372 66.2969 130.272 66.2969 133.642C66.2969 136.322 67.1025 138.27 69.0068 140.175C70.9111 142.094 72.8887 142.929 75.4521 142.929C78.0596 142.914 79.9346 142.123 81.8389 140.248C82.791 139.296 83.2305 138.725 83.6846 137.831C84.5781 136.088 84.8125 135.15 84.8125 133.363L84.8271 131.811L86.1309 134.022C87.083 135.634 87.5518 136.615 87.9033 137.699C88.7822 140.482 90.1152 142.313 91.9023 143.192C92.4443 143.471 92.8984 143.705 92.9277 143.72C92.957 143.72 92.8398 143.998 92.6787 144.335C92.5029 144.657 92.3711 145.082 92.3711 145.272C92.3711 145.551 92.8691 146.444 93.4551 147.221C93.543 147.323 93.4844 147.528 93.2793 147.792C93.1035 148.012 92.957 148.334 92.957 148.495C92.957 149.403 97.4102 155.526 101.307 159.95C104.544 163.642 106.858 165.722 108.66 166.542C112.117 168.124 118.621 168.095 125.462 166.469C126.473 166.22 127.425 165.985 127.571 165.941C127.791 165.868 127.835 165.912 127.762 166.132C127.659 166.483 125.96 181.776 125.477 186.684C125.198 189.555 124.891 193.935 124.891 194.945C124.891 195.927 124.905 195.971 125.447 196.498C126.136 197.143 127.952 198.109 129.432 198.607L130.53 198.974L130.633 202.167C130.838 208.349 131.16 212.816 131.922 219.877C132.361 223.935 132.566 225.458 133.826 234.643C134.236 237.528 134.559 240.048 134.559 240.224C134.559 240.414 134.676 240.678 134.808 240.824C135.042 241.059 135.042 241.088 134.734 241.293C134.544 241.41 133.899 241.732 133.284 241.996C132.684 242.26 131.937 242.641 131.644 242.831C131.351 243.036 130.896 243.241 130.647 243.285C130.398 243.344 129.812 243.622 129.329 243.915C128.685 244.311 128.069 244.516 126.766 244.779C125.813 244.97 124.7 245.263 124.261 245.424C122.371 246.127 121.214 248.485 121.17 251.649C121.141 253.92 121.521 254.345 124.305 255.238C126.487 255.941 128.406 256.264 130.838 256.366C134.529 256.513 136.932 255.985 140.374 254.257L142.308 253.29L142.908 253.7C143.45 254.081 143.567 254.096 144.49 254.022C146.658 253.817 149.104 252.924 149.705 252.118C149.998 251.723 150.013 251.532 149.998 248.676C149.998 245.541 149.749 243.432 149.28 242.304C149.075 241.791 149.075 241.747 149.354 241.469C149.632 241.19 149.646 240.985 149.646 236.312C149.646 229.193 149.969 221.488 150.467 216.493C150.687 214.267 151.214 210.37 151.346 209.989C151.58 209.271 152.781 212.45 153.953 216.933C155.667 223.495 158.113 235.053 159.183 241.732C159.388 242.992 159.695 243.446 160.486 243.681L161.058 243.856L160.984 244.53C160.926 244.896 160.545 247.372 160.105 250.023C158.816 257.904 158.934 258.725 161.688 259.984C164.456 261.273 168.895 261.698 172.352 260.995C173.948 260.673 175.691 260.102 176.556 259.618C178.05 258.769 178.445 257.89 178.313 255.751C178.182 253.686 177.801 252.558 174.93 245.57C174.49 244.486 174.109 243.52 174.109 243.432C174.109 243.344 174.358 243.109 174.666 242.919L175.208 242.567L175.193 236.928C175.193 233.822 175.076 228.051 174.944 224.11C174.812 220.155 174.666 215.614 174.622 214.003C174.358 204.335 174.256 200.863 174.168 200.043C174.095 199.179 174.109 199.105 174.402 199.032C174.637 198.974 176.424 198.124 176.893 197.86C176.937 197.831 176.951 198.373 176.922 199.047C176.849 200.98 177.405 201.845 178.724 201.845H179.324L179.222 202.577C179.017 203.983 179.075 205.038 179.383 205.536C179.778 206.181 180.452 206.503 181.229 206.415C181.741 206.356 181.888 206.4 181.946 206.605C182.298 207.733 184.407 207.982 185.228 206.986C185.389 206.811 185.594 206.767 186.194 206.84C187.176 206.957 187.806 206.605 188.421 205.653C188.641 205.287 188.963 204.95 189.124 204.906C189.769 204.701 190.413 204.042 190.823 203.163C191.409 201.933 191.673 200.6 191.775 198.314C191.893 195.971 191.673 194.008 191.072 192.133C190.662 190.814 190.647 190.756 190.911 190.551C191.058 190.448 191.219 190.346 191.292 190.346C191.6 190.331 191.98 189.35 191.98 188.573C191.98 187.753 191.98 187.753 192.581 187.475C193.006 187.299 193.255 187.05 193.387 186.728C193.724 185.937 193.929 181.527 193.826 177.382C193.665 170.512 193.138 166.879 191.761 163.173C189.827 157.973 185.711 151.762 181.536 147.763L180.291 146.576L181.712 145.961C186.004 144.071 190.34 141.478 193.738 138.783C196.858 136.278 200.579 132.235 202.688 128.998C205.501 124.691 208.064 118.656 209.031 114.071C209.91 109.882 210.071 108.197 210.071 102.748C210.071 98.7197 210.013 97.3281 209.808 95.8633C208.797 88.7002 207.479 83.8369 204.886 77.831C203.523 74.6523 203.099 73.7295 200.916 69.2764C197.664 62.5967 196.756 60.5459 194.324 54.1885C191.6 47.0254 191.248 46.1904 190.237 44.2275C187.396 38.6904 184.202 35.3506 179.866 33.373C175.618 31.4394 170.579 31.1318 166.316 32.5674L165.027 32.9922V32.5234C165.027 31.3662 165.994 26.7812 166.697 24.5254C167.796 21.0683 169.495 17.7724 171.604 14.9892C172.747 13.4951 172.835 13.1728 172.366 12.2353C171.282 10.1259 167.4 8.85153 166.067 10.1699C165.188 11.0634 162.771 17.6553 161.893 21.625C161.702 22.4746 161.424 22.0644 161.16 20.5263C160.574 17.2451 159.3 14.0517 157.396 11.1953C156.136 9.29099 153.411 6.58102 151.463 5.29196C145.882 1.60056 138.719 0.00387573 130.75 0.677704ZM137.503 1.96677C141.033 2.31833 144.3 3.13864 146.863 4.32516C147.903 4.80856 148.108 4.9697 148.123 5.26266C148.138 5.48239 148.621 6.14157 149.339 6.97653C150.862 8.6904 151.536 9.71579 152.122 11.0927C152.913 13.0263 153.206 14.6523 152.913 15.7216C152.84 16.0293 152.767 16.0586 152.151 15.9853C151.785 15.9414 150.848 15.6045 150.086 15.2529L148.694 14.5937L148.035 12.6455C146.966 9.48141 145.896 7.43063 143.816 4.50095C142.732 2.97751 142.396 2.78708 143.318 4.19333C144.856 6.56638 146.072 9.20309 147.083 12.2939C147.449 13.4072 147.713 14.3447 147.684 14.374C147.669 14.4033 146.863 14.0957 145.896 13.7002C143.362 12.6601 141.604 12.1181 141.473 12.3232C141.399 12.4258 141.121 11.8691 140.799 11.0049C139.568 7.7822 137.723 4.70602 135.672 2.47946C135.027 1.79099 135.13 2.04001 135.892 3.0654C137.371 5.04294 138.836 7.82614 139.891 10.624L140.257 11.5908L137.811 10.6679C136.463 10.1552 134.705 9.46677 133.899 9.15915C133.094 8.85153 132.332 8.55856 132.2 8.51462C132.068 8.47067 131.717 8.00192 131.424 7.48923C130.721 6.22946 129.944 5.23337 128.523 3.78317C127.879 3.12399 127.41 2.5527 127.483 2.50876C127.645 2.40622 130.56 1.98141 131.556 1.92282C133.27 1.80563 136.097 1.83493 137.503 1.96677ZM127.732 3.31442C128.67 4.39841 129.886 6.11227 130.516 7.2402L131.028 8.19235L127.996 7.44528C126.326 7.03513 124.437 6.52243 123.792 6.31735C122.005 5.74606 120.862 5.46774 119.852 5.40915C119.354 5.37985 118.782 5.29196 118.592 5.21872L118.226 5.08688L118.665 4.86716C119.969 4.19333 125.389 2.68454 126.897 2.56735C126.985 2.5527 127.366 2.90427 127.732 3.31442ZM121.771 6.83005C123.646 7.50388 125.184 8.08981 125.184 8.13376C125.184 8.26559 123.25 8.51462 121.404 8.64645C120.379 8.70505 119.939 8.79294 120.027 8.88083C120.232 9.08591 124.422 8.93942 125.506 8.6904C126.253 8.51462 126.399 8.52927 126.868 8.74899C127.161 8.89548 127.483 8.95407 127.571 8.91013C127.674 8.85153 127.703 8.85153 127.645 8.91013C127.557 9.02731 134.354 12.5136 134.676 12.5136C134.764 12.5136 134.852 12.5722 134.852 12.6455C134.852 12.9677 128.787 14.33 126.15 14.5937L124.261 14.7695L123.602 14.0517C122.752 13.1289 120.906 10.6533 120.394 9.75974C120.174 9.37888 119.778 8.76364 119.515 8.39743C119.104 7.81149 118.152 5.93649 118.152 5.70212C118.152 5.55563 118.416 5.64352 121.771 6.83005ZM125.345 7.12302C125.389 7.19626 125.55 7.21091 125.711 7.16696C125.975 7.07907 125.975 7.07907 125.726 7.2402C125.521 7.37204 125.301 7.35739 124.744 7.16696C124.334 7.03513 124.012 6.90329 124.012 6.87399C124.012 6.77145 125.257 7.00583 125.345 7.12302ZM126.575 7.60641C127.146 7.85544 126.883 7.87009 126.209 7.60641C125.931 7.50388 125.799 7.40134 125.916 7.40134C126.033 7.40134 126.341 7.48923 126.575 7.60641ZM127.527 7.91403C127.527 7.94333 127.425 7.97263 127.308 7.97263C127.19 7.97263 127.088 7.91403 127.088 7.82614C127.088 7.7529 127.19 7.7236 127.308 7.76755C127.425 7.82614 127.527 7.88474 127.527 7.91403ZM137.547 13.2314C137.605 13.3047 137.503 13.334 137.342 13.29C137.005 13.2021 136.961 13.0996 137.254 13.0996C137.371 13.0996 137.503 13.1582 137.547 13.2314ZM137.43 13.6269C138.426 14.0664 141.883 15.7949 143.025 16.4394L143.802 16.8642L142.073 17.4795C137.488 19.1347 136.111 19.6035 134.354 20.0576C133.299 20.3359 132.317 20.5703 132.171 20.5703C131.482 20.5703 128.172 18.3291 125.975 16.3662C124.92 15.4287 124.759 15.2236 124.979 15.1504C125.14 15.0918 126.077 15.0039 127.088 14.9599C128.904 14.872 130.867 14.5205 134.339 13.6855C135.306 13.4658 136.199 13.2607 136.331 13.2607C136.463 13.2461 136.961 13.4218 137.43 13.6269ZM146.307 17.875C148.445 18.6367 151.946 20.6728 151.404 20.834C151.287 20.8633 150.145 21.3906 148.885 21.9912C147.625 22.5918 146.336 23.1045 146.028 23.1484C143.743 23.3828 141.502 23.456 140.418 23.3389C138.279 23.1045 135.687 22.4014 133.724 21.5224C132.522 20.9951 132.522 21.0097 134.046 20.7168C135.291 20.4824 137.811 19.7646 139.803 19.0761C141.619 18.4609 144.769 17.5088 145.062 17.4941C145.149 17.4941 145.721 17.6699 146.307 17.875ZM153.382 21.874L154.261 22.2842L153.792 22.5185C152.605 23.1484 150.672 23.5439 148.108 23.7197C146.951 23.793 146.937 23.793 147.376 23.5586C148.211 23.0752 152.063 21.4931 152.444 21.4492C152.488 21.4492 152.913 21.6396 153.382 21.874ZM151.111 32.1279C152.796 32.5088 154.554 33.168 156.077 33.9883C158.143 35.1015 158.143 35.1162 155.579 35.0137C154.378 34.9551 153.133 34.8818 152.825 34.8379C152.298 34.75 152.269 34.7646 152.312 35.0869C152.43 35.9219 154.583 36.5517 157.352 36.5517C159.505 36.5517 161.087 36.2441 164.148 35.292C167.796 34.1494 168.997 33.8857 171.18 33.7978C179.119 33.4756 185.198 37.8262 189.109 46.6445C189.9 48.4463 190.721 50.5264 192.713 55.7998C194.661 60.956 196.478 65.0283 200.184 72.6455C204.754 82.0205 206.629 87.792 207.684 95.8047C207.962 97.914 208.006 98.9687 208.021 103.041C208.021 108.153 207.947 109.032 207.2 112.738C206.409 116.708 205.325 119.755 203.304 123.739C199.393 131.415 193.621 137.26 185.535 141.713C181.038 144.188 177.142 145.668 172.22 146.752C165.613 148.217 159.476 148.29 153.748 146.957L152.356 146.635L153.118 146.547C153.66 146.488 153.997 146.356 154.217 146.137L154.554 145.8L152.869 145.888C151.624 145.961 150.716 145.932 149.383 145.741C147.391 145.463 144.9 145.492 141.033 145.814C133.504 146.459 125.608 144.145 117.991 139.062C107.4 131.986 100.296 119.594 99.124 106.161C98.9189 103.905 98.9189 99.0713 99.1094 96.9619C99.8564 88.8027 102.859 80.3506 107.854 72.3525C110.345 68.3828 111.897 66.3467 116.761 60.707C122.605 53.9394 124.173 51.8887 128.685 45.1504C131.175 41.4297 132.654 39.3935 133.885 38.0312C136.946 34.6181 140.696 32.4795 144.739 31.8496C146.116 31.6445 149.661 31.791 151.111 32.1279ZM91.9609 123.241C92.6641 123.695 94.5977 125.819 95.5938 127.226L96.165 128.046L94.7734 127.343C93.9824 126.933 93.1914 126.625 92.9131 126.625C92.2979 126.625 92.2686 126.596 91.3018 125.292C90.3643 124.047 90.1592 123.432 90.54 123.065C90.877 122.714 91.1846 122.758 91.9609 123.241ZM88.6504 124.267C89.2363 124.691 90.1006 125.57 90.8037 126.449C91.1699 126.918 91.1846 126.947 90.9648 127.299C90.584 127.855 90.7598 128.939 91.3311 129.716L91.7852 130.36L91.4629 130.609C91.2725 130.756 91.082 130.873 91.0381 130.873C90.9941 130.873 90.584 130.331 90.1299 129.657C89.6758 128.998 88.8701 127.929 88.3281 127.284C87.3906 126.171 86.8193 125.204 86.8047 124.721C86.8047 124.589 86.9072 124.34 87.0391 124.164C87.3467 123.71 87.9619 123.754 88.6504 124.267ZM77.8545 125.087C81.4287 126.024 84.1533 129.628 84.168 133.451C84.168 134.594 83.7285 136.337 83.1133 137.582C82.5566 138.725 80.96 140.424 79.8613 141.054C76.5068 143.002 72.5664 142.548 69.6953 139.867C67.9229 138.227 67 136.103 66.9854 133.656C66.9707 131.181 67.835 129.159 69.6514 127.343C71.0723 125.922 72.6543 125.102 74.5732 124.809C75.2617 124.706 76.9756 124.853 77.8545 125.087ZM87.3174 127.68C88.1816 128.603 89.8809 130.727 90.2324 131.283C90.291 131.4 90.1299 131.737 89.8076 132.191L89.2656 132.938L88.5332 131.869C88.1377 131.283 87.4932 130.434 87.0977 129.994C86.043 128.764 85.6328 128.104 85.6328 127.606C85.6328 127.196 85.9697 126.625 86.2334 126.625C86.292 126.625 86.7754 127.108 87.3174 127.68ZM93.7041 127.987C94.8613 128.471 96.6777 129.643 97.6592 130.551C99.1094 131.884 99.6953 133.583 99.6953 136.469V138.036L98.7139 138.549C97.3516 139.267 95.374 140.775 94.3633 141.874L93.5137 142.782L92.7666 142.416C90.8623 141.478 89.8223 140.16 88.9873 137.611C88.6943 136.718 88.0938 135.443 87.3027 134.066C85.8672 131.576 85.5889 130.961 85.7061 130.565C85.8379 130.155 85.9844 130.214 86.7314 131.049C88.0059 132.455 88.8701 133.7 88.7676 133.935C88.709 134.066 88.6357 134.418 88.5918 134.74C88.5039 135.487 88.6797 135.37 89.4854 134.125C90.2031 133.026 91.5654 131.62 92.3125 131.225C92.8105 130.946 92.8105 130.946 93.1914 131.342L93.5723 131.723L93.2354 132.572C92.752 133.803 92.752 135.897 93.2354 136.981C93.5576 137.714 94.0557 138.314 94.2021 138.168C94.2461 138.139 94.1436 137.582 93.9824 136.952C93.5137 135.136 93.6016 134.213 94.3779 132.455C94.7295 131.649 94.7441 131.591 94.5098 131.239C94.3633 131.02 93.9531 130.639 93.5723 130.39C92.1953 129.452 91.7852 128.837 91.9902 128.017C92.1074 127.548 92.5908 127.533 93.7041 127.987ZM101.849 139.105C102.391 139.721 102.376 139.765 101.204 140.395C99.2412 141.449 97.3369 142.914 95.7109 144.628C94.8613 145.521 94.1289 146.254 94.085 146.254C94.041 146.254 93.8652 146.02 93.6895 145.741L93.3818 145.228L93.792 144.467C94.2754 143.559 96.0186 141.757 97.3516 140.775C98.6406 139.823 100.633 138.827 101.321 138.798C101.438 138.783 101.688 138.93 101.849 139.105ZM146.482 147.997L146.893 148.422L144.695 150.604L142.483 152.802L141.854 151.469C141.312 150.312 141.224 150.004 141.224 149.154C141.224 148.627 141.282 148.129 141.341 148.07C141.487 147.924 143.963 147.616 145.193 147.587C145.984 147.572 146.116 147.616 146.482 147.997ZM151.185 148.451C152.869 148.993 155.579 149.623 156.224 149.623C156.399 149.623 156.531 149.667 156.531 149.711C156.531 149.828 152.957 153.578 152.84 153.578C152.781 153.578 152.518 153.27 152.269 152.875C151.741 152.099 149.764 149.726 148.87 148.788C148.167 148.056 148.196 147.675 148.943 147.807C149.207 147.851 150.218 148.144 151.185 148.451ZM148.753 150.297C149.163 150.736 149.734 151.41 150.042 151.762C150.54 152.392 150.555 152.436 150.32 152.67C150.071 152.904 150.027 152.875 149.471 152.26C148.577 151.264 147.596 149.916 147.596 149.682C147.596 149.271 148.021 149.491 148.753 150.297ZM147.493 153.725L148.343 154.677L147.859 154.75C146.893 154.896 146.6 154.765 145.853 153.812C145.442 153.314 145.047 152.728 144.944 152.509C144.783 152.157 144.798 152.069 145.12 151.732L145.472 151.366L146.058 152.055C146.38 152.45 147.024 153.197 147.493 153.725ZM141.297 152.831C141.561 153.402 141.927 154.003 142.132 154.193L142.483 154.53L143.23 153.754C143.641 153.329 143.992 152.992 144.007 153.021C144.153 153.197 144.578 154.164 144.739 154.677C144.915 155.263 144.886 155.424 144.49 156.757C143.23 160.976 140.843 171.273 139.759 177.206C139.407 179.125 139.085 180.751 139.026 180.795C138.968 180.853 138.968 180.165 139.012 179.286C139.056 178.393 139.129 176.459 139.173 174.965C139.393 167.699 139.803 160.624 140.271 155.775C140.564 152.831 140.696 151.82 140.784 151.82C140.813 151.82 141.048 152.274 141.297 152.831ZM155.799 153.739C155.11 156.376 154.378 160.199 153.821 164.037C152.679 172.035 152.371 177.191 152.474 186.728L152.547 193.715L152.181 193.803C151.653 193.949 144.769 193.759 143.567 193.583C141.941 193.334 139.305 192.821 139.114 192.704C138.997 192.631 138.953 191.312 138.982 187.782L139.026 182.963L140.491 184.794C141.312 185.79 142.498 187.313 143.157 188.163C144.534 189.95 144.71 190.126 145.003 189.95C145.193 189.848 149.998 185.424 151.448 184.018L152.02 183.461L151.917 181.82C151.814 180.019 151.595 176.986 151.038 169.325C150.833 166.586 150.599 163.349 150.511 162.147C150.423 160.932 150.232 158.895 150.086 157.606L149.822 155.263L150.408 154.501C151.302 153.329 151.302 153.329 151.858 154.193C152.62 155.395 152.796 155.351 154.612 153.52C155.462 152.67 156.165 151.996 156.194 152.025C156.224 152.04 156.048 152.816 155.799 153.739ZM149.207 160.375C149.207 160.727 149.251 161.122 149.295 161.239C149.354 161.4 148.797 161.898 147.42 162.909C144.549 165.048 143.494 165.78 143.406 165.707C143.333 165.619 143.758 163.715 143.904 163.437C143.963 163.349 144.373 163.012 144.812 162.689C145.252 162.382 146.365 161.591 147.288 160.932C148.211 160.272 149.017 159.73 149.075 159.73C149.148 159.73 149.207 160.023 149.207 160.375ZM175.135 166.264C176.233 167.626 177.376 169.325 177.845 170.248C178.489 171.537 178.782 175.009 178.826 181.85L178.855 186.317L179.339 186.786C179.793 187.226 179.822 187.313 179.822 188.236C179.822 189.101 179.866 189.276 180.188 189.613L180.555 189.994L179.837 190.844C179.441 191.312 178.914 192.06 178.68 192.514C178.387 193.056 178.196 193.275 178.152 193.129C177.947 192.543 176.424 185.937 176.102 184.267C175.413 180.751 174.9 177.221 174.476 173.28C174.241 171.127 174.007 165.15 174.153 165.15C174.197 165.15 174.637 165.648 175.135 166.264ZM149.822 167.802L149.866 168.769L147.962 170.204C146.922 171.01 145.018 172.475 143.729 173.456C142.454 174.452 141.385 175.243 141.355 175.214C141.326 175.185 141.414 174.599 141.546 173.895L141.795 172.636L144.725 170.365C149.339 166.806 149.573 166.645 149.676 166.747C149.72 166.791 149.793 167.274 149.822 167.802ZM150.438 176.063L150.54 177.089L147.361 179.433C145.618 180.722 143.567 182.26 142.82 182.831C142.059 183.417 141.399 183.9 141.341 183.9C141.224 183.886 140.228 182.685 140.154 182.45C140.125 182.377 140.564 182.011 141.106 181.615C141.648 181.234 142.894 180.326 143.86 179.594C146.058 177.938 150.262 174.95 150.306 174.994C150.32 175.023 150.379 175.492 150.438 176.063ZM150.291 183.725C150.042 183.944 148.724 185.145 147.376 186.376L144.915 188.646L144.578 188.207C144.388 187.973 144.227 187.709 144.227 187.621C144.227 187.519 145.618 186.522 147.317 185.38C150.232 183.432 151.316 182.831 150.291 183.725ZM182.605 187.943C183.455 188.148 184.334 188.207 186.561 188.222C188.128 188.222 189.769 188.163 190.208 188.104L190.999 187.987L190.896 188.603C190.838 188.954 190.735 189.306 190.647 189.408C190.325 189.789 188.978 189.979 186.561 189.979C184.539 189.965 183.953 189.921 182.942 189.643C181.39 189.218 180.994 189.042 180.994 188.734C180.994 188.588 180.95 188.266 180.892 188.002C180.789 187.46 180.599 187.46 182.605 187.943ZM183.118 190.888C184.217 191.151 188.304 191.254 189.095 191.034C189.461 190.932 189.52 190.976 189.739 191.474C189.856 191.781 190.135 192.66 190.325 193.422C190.647 194.652 190.691 195.121 190.706 197.377C190.706 199.267 190.647 200.219 190.457 201.024C190.208 202.167 189.695 203.485 189.549 203.353C189.505 203.31 189.549 202.855 189.637 202.343C189.856 201.054 189.783 199.501 189.49 199.501C189.329 199.501 189.183 199.926 188.963 201.068C188.377 203.881 187.806 205.258 186.971 205.727C186.282 206.107 186.209 205.785 186.634 204.32C187.146 202.592 187.322 199.926 186.927 199.779C186.575 199.633 186.487 199.853 186.268 201.303C185.74 204.862 184.539 207.089 183.44 206.591C182.898 206.342 182.723 205.844 182.972 205.243C183.646 203.632 184.026 199.501 183.499 199.501C183.206 199.501 183.118 199.75 182.679 201.845C182.459 202.885 182.151 204.071 181.99 204.452C181.58 205.419 180.994 205.697 180.481 205.185C180.262 204.979 180.247 204.73 180.335 203.251C180.379 202.313 180.525 200.731 180.643 199.721C180.921 197.26 180.906 196.366 180.613 196.249C180.232 196.103 180.101 196.395 179.72 198.344C179.31 200.453 179.207 200.746 178.797 200.746C178.226 200.746 178.021 200.131 178.138 198.798C178.284 197.099 178.973 194.491 179.588 193.319C180.306 191.957 181.536 190.463 181.844 190.551C181.976 190.595 182.562 190.741 183.118 190.888ZM128.67 246.801C128.904 247.035 128.904 247.064 128.641 247.27C128.348 247.475 126.326 247.562 125.667 247.387C124.949 247.196 125.33 246.859 126.575 246.537C127.176 246.391 128.421 246.552 128.67 246.801ZM167.854 252.309C167.986 252.44 167.942 252.543 167.679 252.763C167.137 253.217 165.467 253.085 165.467 252.587C165.467 252.118 167.444 251.869 167.854 252.309Z" fill="#A0EFAF"/>
<path d="M119.441 73.2021C117.61 73.832 116.131 75.1504 115.384 76.8203C115.047 77.5674 115.179 77.8896 115.691 77.5674C117.581 76.3955 119.676 75.6777 121.683 75.5459C123.206 75.4433 124.524 75.6484 126.312 76.2637C127.059 76.5273 127.703 76.6885 127.762 76.6445C127.923 76.4687 127.146 75.2969 126.473 74.667C126.106 74.3447 125.535 73.9053 125.169 73.7002C123.66 72.8213 121.214 72.6016 119.441 73.2021Z" fill="#A0EFAF"/>
<path d="M157.689 74.4619C156.443 74.8574 155.433 75.4727 154.627 76.3223C153.499 77.5234 153.602 77.6113 155.55 77.084C157.132 76.6592 160.062 76.6299 161.585 77.0254C162.918 77.377 165.042 78.373 166.053 79.1348C166.492 79.4717 166.902 79.75 166.961 79.75C167.21 79.75 167.049 79.1494 166.536 78.124C165.628 76.2783 163.958 74.916 162.024 74.4033C160.853 74.1104 158.729 74.125 157.689 74.4619Z" fill="#A0EFAF"/>
<path d="M120.862 80.0429C118.226 80.5995 116.131 82.4013 114.769 85.2431C113.963 86.913 113.597 88.4364 113.509 90.5311C113.377 93.3143 113.992 95.7313 115.369 97.8261C116.351 99.3056 117.288 100.184 118.709 100.873C119.778 101.415 120.071 101.488 121.185 101.547C121.902 101.591 122.781 101.532 123.265 101.43C125.55 100.932 127.733 99.1151 128.904 96.7274C130.018 94.4716 130.223 93.4608 130.223 90.4432C130.223 88.0702 130.193 87.7772 129.813 86.5614C128.831 83.3388 127 81.1854 124.539 80.3358C123.558 79.9989 121.712 79.8524 120.862 80.0429ZM124.261 81.2147C126.414 81.9618 128.275 84.247 129.066 87.1473C129.446 88.5097 129.52 91.5858 129.227 93.0946C128.406 97.1229 125.916 99.9794 122.737 100.58C121.126 100.873 118.841 100.184 117.786 99.1005L117.361 98.6464L118.065 98.8807C119.573 99.3934 121.639 98.7343 122.855 97.3427C123.558 96.5516 124.363 94.955 124.671 93.7391C125.213 91.6444 125.052 88.744 124.29 87.1327L123.968 86.4149L123.851 87.2938C123.763 88.0409 123.675 88.2313 123.221 88.6415C122.078 89.6962 120.643 88.9052 120.643 87.2206C120.643 86.0048 121.507 84.8768 122.444 84.8768L122.913 84.8622L122.547 84.5546C122.342 84.3934 121.859 84.1005 121.448 83.91C119.617 83.0897 118.372 83.3095 116.248 84.8329L115.897 85.0966L116.248 84.4667C116.439 84.1298 117.039 83.412 117.581 82.8993C119.559 80.9804 121.902 80.3944 124.261 81.2147Z" fill="#A0EFAF"/>
<path d="M157.044 81.2294C154.568 81.5956 152.02 83.6318 150.76 86.2099C148.328 91.2343 148.914 97.1376 152.181 100.639C154.759 103.407 158.157 104.081 161.497 102.499C163.606 101.488 165.73 98.8808 166.565 96.2734C167.723 92.6113 167.356 88.4804 165.599 85.5068C164.5 83.6318 162.098 81.7568 160.325 81.3759C159.241 81.1415 157.967 81.0829 157.044 81.2294ZM160.501 82.4452C162.566 83.1777 164.163 84.6718 165.188 86.8544C166.067 88.7441 166.258 89.6376 166.258 91.9814C166.258 94.3984 166.082 95.1894 165.013 97.4306C163.343 100.917 160.164 102.865 157.029 102.323C155.813 102.103 154.393 101.43 153.558 100.683L152.942 100.126L153.528 100.419C154.012 100.668 154.319 100.712 155.286 100.668C156.268 100.609 156.604 100.536 157.381 100.111C159.593 98.9394 160.867 96.4638 161.028 93.08C161.102 91.3661 160.882 89.9159 160.325 88.7294L160.018 88.0263L159.827 88.8905C159.505 90.4433 158.201 91.205 157.205 90.4286C156.37 89.7695 156.165 88.6708 156.663 87.5868C157.029 86.7665 157.469 86.4443 158.26 86.3417L158.948 86.2685L158.304 85.7851C156.648 84.5693 154.275 84.5839 152.43 85.829L151.683 86.3271L151.946 85.8876C152.4 85.1113 153.719 83.7636 154.51 83.2509C156.341 82.079 158.597 81.7714 160.501 82.4452Z" fill="#A0EFAF"/>
<path d="M198.719 90.2238C198.719 90.2531 198.807 90.3409 198.909 90.4288C199.056 90.546 199.114 90.5314 199.114 90.3995C199.114 90.2824 199.026 90.1945 198.909 90.1945C198.807 90.1945 198.719 90.2091 198.719 90.2238Z" fill="#A0EFAF"/>
<path d="M136.463 92.6699C136.111 94.0469 135.833 94.7353 135.291 95.541C134.603 96.5664 133.987 96.9912 132.947 97.1816C131.541 97.4453 130.896 98.2217 130.896 99.6426C130.896 102.294 133.006 104.799 135.232 104.799C136.053 104.799 137.928 104.286 137.928 104.066C137.928 103.979 137.913 103.92 137.884 103.92C137.225 103.92 135.262 103.539 134.866 103.334C133.65 102.704 132.786 101.327 132.757 99.9209L132.728 99.0273L133.606 98.793C134.72 98.4854 135.247 98.207 135.818 97.5918C136.712 96.6689 137.342 94.8965 137.342 93.4023C137.342 92.0254 136.756 91.542 136.463 92.6699Z" fill="#A0EFAF"/>
<path d="M201.692 103.744C201.385 103.788 201.092 104.286 201.268 104.462C201.312 104.506 201.575 104.564 201.854 104.594C202.264 104.623 202.366 104.579 202.44 104.315C202.483 104.14 202.44 103.935 202.352 103.847C202.234 103.744 202.22 103.759 202.293 103.92C202.396 104.11 202.381 104.11 202.205 103.92C202.103 103.803 201.868 103.715 201.692 103.744ZM201.649 104.271C201.649 104.315 201.59 104.389 201.502 104.433C201.429 104.477 201.356 104.447 201.356 104.374C201.356 104.286 201.429 104.213 201.502 104.213C201.59 104.213 201.649 104.242 201.649 104.271Z" fill="#A0EFAF"/>
<path d="M201.766 104.901C201.868 104.945 202 104.93 202.044 104.887C202.103 104.843 202.015 104.799 201.854 104.813C201.692 104.813 201.648 104.857 201.766 104.901Z" fill="#A0EFAF"/>
<path d="M129.944 107.172C128.157 107.816 127.469 110.028 128.318 112.431C128.67 113.427 129.666 115.067 130.398 115.873C132.581 118.231 135.877 119.462 139.437 119.257C142.161 119.096 144.417 118.246 146.38 116.664C149.295 114.306 150.364 110.409 148.694 108.226C147.845 107.113 146.365 106.849 144.227 107.435C141.546 108.168 141.004 108.241 138.44 108.226C136.009 108.226 135.906 108.212 133.606 107.611C131.175 106.967 130.677 106.908 129.944 107.172ZM137.195 114.701C137.195 114.906 136.873 115.331 136.551 115.536C136.229 115.756 136.185 115.756 135.994 115.536C135.833 115.316 135.833 115.302 136.053 115.39C136.229 115.448 136.331 115.39 136.39 115.184C136.463 114.994 136.565 114.921 136.712 114.979C136.902 115.038 136.917 115.023 136.756 114.833C136.609 114.642 136.624 114.613 136.888 114.613C137.049 114.613 137.195 114.657 137.195 114.701ZM140.022 114.804C139.979 114.891 140.008 114.906 140.11 114.848C140.301 114.716 141.048 115.272 141.092 115.58C141.165 116.034 139.905 116.239 139.407 115.873C139.246 115.756 139.217 115.756 139.305 115.888C139.466 116.166 138.733 116.122 138.514 115.858C138.353 115.668 138.367 115.551 138.616 115.228C138.792 115.009 139.026 114.848 139.158 114.848C139.29 114.862 139.393 114.833 139.393 114.774C139.393 114.73 139.554 114.672 139.759 114.672C139.979 114.657 140.081 114.701 140.022 114.804Z" fill="#A0EFAF"/>
<path d="M140.242 115.155C140.33 115.185 140.389 115.272 140.359 115.331C140.316 115.39 140.374 115.448 140.491 115.448C140.652 115.448 140.667 115.39 140.55 115.243C140.462 115.141 140.301 115.053 140.213 115.067C140.11 115.067 140.125 115.097 140.242 115.155Z" fill="#A0EFAF"/>
<path d="M192.552 112.225C192.728 112.562 193.445 112.709 193.445 112.416C193.445 112.343 193.343 112.313 193.226 112.357C193.065 112.431 193.021 112.372 193.094 112.182C193.167 111.962 193.152 111.947 193.035 112.108C192.903 112.299 192.845 112.299 192.625 112.108C192.391 111.918 192.391 111.933 192.552 112.225Z" fill="#A0EFAF"/>
<path d="M197.4 115.375C197.4 115.448 197.342 115.478 197.269 115.434C197.195 115.39 197.064 115.448 196.976 115.551C196.829 115.727 196.873 115.756 197.181 115.727C197.386 115.697 197.591 115.741 197.635 115.815C197.679 115.873 197.664 115.932 197.591 115.917C197.532 115.902 197.342 115.902 197.181 115.917C196.917 115.946 196.917 115.961 197.239 116.137C197.444 116.254 197.679 116.313 197.781 116.269C197.884 116.225 197.928 116.327 197.884 116.562C197.825 116.855 197.898 116.972 198.279 117.162C198.675 117.353 198.733 117.353 198.66 117.177C198.616 117.06 198.646 116.957 198.719 116.957C198.924 116.957 198.895 116.283 198.66 115.727C198.484 115.287 198.382 115.229 197.928 115.229C197.635 115.229 197.4 115.287 197.4 115.375ZM198.353 115.961C198.44 116.02 198.353 116.078 198.177 116.078C197.942 116.078 197.869 116.02 197.942 115.858C197.986 115.727 198.06 115.683 198.118 115.741C198.162 115.8 198.279 115.902 198.353 115.961Z" fill="#A0EFAF"/>
<path d="M195.95 118.363C195.95 118.524 195.994 118.568 196.038 118.451C196.082 118.349 196.067 118.217 196.024 118.173C195.98 118.114 195.936 118.202 195.95 118.363Z" fill="#A0EFAF"/>
<path d="M135.291 121.264C135.291 121.557 135.892 122.04 136.683 122.406C137.693 122.875 140.008 122.875 141.033 122.406C141.736 122.099 142.161 121.601 141.883 121.425C141.795 121.366 141.092 121.439 140.33 121.586C138.733 121.864 137.605 121.806 136.214 121.381C135.54 121.161 135.291 121.132 135.291 121.264Z" fill="#A0EFAF"/>
<path d="M189.578 129.979C189.314 130.082 189.314 130.097 189.549 130.184C189.695 130.243 189.754 130.36 189.695 130.448C189.637 130.551 189.651 130.58 189.754 130.521C189.842 130.477 189.9 130.302 189.886 130.141C189.871 129.979 189.871 129.848 189.856 129.862C189.856 129.862 189.725 129.921 189.578 129.979Z" fill="#A0EFAF"/>
<path d="M188.699 130.419C188.626 130.536 188.699 131.151 188.802 131.254C188.831 131.283 189.066 131.356 189.315 131.4C189.637 131.459 189.783 131.444 189.783 131.327C189.783 131.225 189.725 131.181 189.666 131.225C189.608 131.254 189.461 131.239 189.344 131.166C189.168 131.063 189.168 130.99 189.315 130.844C189.564 130.595 189.534 130.272 189.285 130.375C189.153 130.419 189.109 130.551 189.153 130.683C189.212 130.844 189.183 130.888 189.036 130.844C188.919 130.8 188.846 130.653 188.846 130.521C188.875 130.258 188.817 130.214 188.699 130.419Z" fill="#A0EFAF"/>
<path d="M190.149 130.8C190.237 131.195 190.223 131.21 190.032 130.976C189.915 130.844 189.769 130.727 189.71 130.727C189.637 130.727 189.71 130.858 189.856 131.02C190.164 131.371 190.325 131.386 190.604 131.107C190.853 130.858 190.882 130.668 190.633 130.814C190.545 130.873 190.384 130.785 190.267 130.639C190.076 130.39 190.062 130.39 190.149 130.8Z" fill="#A0EFAF"/>
<path d="M179.778 138.212C179.822 138.388 179.939 138.476 180.057 138.432C180.174 138.388 180.262 138.417 180.262 138.49C180.262 138.578 180.13 138.637 179.954 138.637C179.793 138.637 179.705 138.71 179.749 138.783C179.808 138.886 179.925 138.886 180.115 138.783C180.731 138.461 180.818 138.681 180.481 139.735C180.423 139.94 180.452 139.926 180.613 139.662C180.921 139.164 180.906 138.739 180.54 138.285C180.174 137.816 179.661 137.758 179.778 138.212Z" fill="#A0EFAF"/>
<path d="M179.061 139.032C178.68 139.135 178.738 139.296 179.163 139.296C179.368 139.296 179.529 139.208 179.529 139.105C179.529 138.93 179.485 138.915 179.061 139.032Z" fill="#A0EFAF"/>
<path d="M169.832 142.841C169.158 143.192 169.334 143.881 170.11 143.94C170.564 143.969 171.033 143.72 171.033 143.427C171.033 143.339 170.945 143.383 170.843 143.529C170.652 143.778 170.638 143.764 170.462 143.354C170.359 143.105 170.315 142.826 170.374 142.753C170.491 142.548 170.33 142.577 169.832 142.841ZM170.022 143.354C170.184 143.661 170.184 143.676 169.964 143.485C169.817 143.383 169.715 143.236 169.715 143.163C169.715 142.943 169.847 143.017 170.022 143.354Z" fill="#A0EFAF"/>
<path d="M170.74 143.031C171.004 143.207 171.18 143.222 171.18 143.061C171.18 143.002 171.033 142.929 170.858 142.929C170.594 142.899 170.565 142.929 170.74 143.031Z" fill="#A0EFAF"/>
<path d="M160.032 144.452C159.842 144.686 159.857 144.701 160.091 144.511C160.223 144.408 160.34 144.291 160.34 144.262C160.34 144.144 160.223 144.218 160.032 144.452Z" fill="#A0EFAF"/>
<path d="M158.802 144.643C158.758 144.716 158.787 144.789 158.86 144.789C158.948 144.789 159.022 144.716 159.022 144.643C159.022 144.555 158.992 144.496 158.963 144.496C158.919 144.496 158.846 144.555 158.802 144.643Z" fill="#A0EFAF"/>
<path d="M72.5518 127.343C71.5264 127.606 70.8086 128.119 71.0577 128.368C71.1602 128.471 71.5411 128.412 72.1563 128.236C72.6836 128.09 73.3575 127.929 73.6651 127.87C74.2217 127.782 74.3536 127.562 74.0313 127.24C73.8116 127.02 73.7676 127.02 72.5518 127.343Z" fill="#A0EFAF"/>
<path d="M71.9951 129.745C71.6436 129.98 71.4824 130.199 71.4531 130.536C71.3945 131.122 71.7461 131.269 72.3027 130.873C73.0645 130.331 73.8701 130.565 74.1191 131.415C74.3828 132.25 75.0859 132.133 75.0859 131.254C75.0713 129.774 73.2695 128.881 71.9951 129.745Z" fill="#A0EFAF"/>
<path d="M80.2716 129.628C80.213 129.774 80.4474 130.141 80.8868 130.639C81.2823 131.078 81.7071 131.576 81.839 131.752C81.9708 131.957 82.1319 132.045 82.2345 131.986C82.5274 131.811 82.4249 131.151 82.0147 130.595C81.2384 129.54 80.462 129.115 80.2716 129.628Z" fill="#A0EFAF"/>
<path d="M77.5909 131.693C77.1222 132.074 76.9757 132.704 77.3272 132.821C77.4151 132.851 77.7521 132.763 78.045 132.616C78.3526 132.455 78.6896 132.338 78.7921 132.338C79.1876 132.338 79.7442 132.924 79.8321 133.422C79.9347 133.979 80.1544 134.125 80.5499 133.92C80.7257 133.832 80.7989 133.612 80.7989 133.114C80.7989 132.543 80.7257 132.382 80.2276 131.884C79.7003 131.357 79.5978 131.313 78.8507 131.313C78.1915 131.313 77.9571 131.386 77.5909 131.693Z" fill="#A0EFAF"/>
<path d="M69.417 132.44C69.3438 132.675 69.2998 133.378 69.2998 134.037C69.3145 135.062 69.373 135.341 69.7832 136.176C70.4277 137.479 71.7607 138.739 73.123 139.311C74.0166 139.677 74.3096 139.721 75.6719 139.735C77.1807 139.735 77.2539 139.721 78.3379 139.179C79.9053 138.402 81.165 136.952 81.0625 136.029C81.0186 135.663 80.8721 135.604 77.8252 134.652C76.0674 134.096 73.6211 133.29 72.376 132.851C71.1309 132.411 69.9883 132.045 69.8271 132.045C69.6221 132.045 69.4902 132.177 69.417 132.44ZM72.0244 133.378C72.9473 133.7 75.1738 134.447 76.9756 135.033C78.792 135.604 80.2861 136.146 80.3154 136.22C80.3301 136.308 80.2861 136.469 80.2129 136.586C80.0957 136.776 79.8613 136.747 78.4258 136.396C76.3457 135.868 71.7168 134.345 70.8379 133.891C70.3398 133.642 70.1641 133.466 70.1348 133.173C70.1055 132.953 70.1494 132.777 70.2227 132.777C70.2959 132.777 71.1016 133.041 72.0244 133.378Z" fill="#A0EFAF"/>
<path d="M78.3379 58.4659C77.6934 58.7735 76.9317 59.6964 76.7266 60.3995C76.4776 61.1905 76.5069 62.5675 76.7852 63.505C77.2832 65.2042 78.9239 67.7823 80.3301 69.1153C80.8721 69.6134 81.0479 69.5841 82.8057 68.7638C86.7901 66.9034 88.9434 64.0763 88.2696 61.586C87.9473 60.3409 86.4239 59.2423 85.0616 59.2423C84.4756 59.2423 83.626 59.5938 83.1719 60.0186C82.8496 60.3263 82.8203 60.3263 82.6739 60.0772C82.3662 59.5206 81.6045 58.7735 81.0772 58.4952C80.3741 58.1436 79.0117 58.129 78.3379 58.4659ZM80.0371 59.9454C80.5791 60.6485 79.8467 62.0694 78.9239 62.0694C78.294 62.0694 78.0157 61.7911 78.0157 61.1466C78.0157 59.9454 79.378 59.1251 80.0371 59.9454Z" fill="#A0EFAF"/>
<path d="M74.4414 78.5049C72.1709 79.0908 69.8711 80.9365 68.875 83.0166C67.1611 86.5762 67.8496 90.458 70.6474 93.0801C72.3467 94.6621 74.207 95.4238 76.4043 95.4238C80.1689 95.4092 83.3037 93.1094 84.5488 89.418C84.9736 88.1729 84.9297 85.5801 84.4756 84.1738C83.6553 81.6543 81.6338 79.6035 79.1435 78.7246C77.957 78.2998 75.6719 78.1973 74.4414 78.5049ZM78.792 79.3398C80.7695 79.9844 82.5127 81.5078 83.3916 83.3389C83.8896 84.4082 84.3144 86.0195 84.3144 86.9277C84.3144 87.8506 83.8896 89.4766 83.3769 90.5166C82.1465 93.0215 79.2168 94.8232 76.4043 94.8379C72.9912 94.8379 69.5781 92.084 68.8017 88.6855C68.5527 87.5869 68.6113 85.7412 68.9336 84.7158C70.2519 80.4092 74.7051 77.9922 78.792 79.3398Z" fill="#A0EFAF"/>
<path d="M73.1085 81.3028C72.3468 81.5812 71.878 82.0206 72.1124 82.255C72.2442 82.3868 72.464 82.3575 72.9913 82.1378C73.3722 81.962 73.9728 81.7862 74.3243 81.7276C74.8077 81.6544 74.9396 81.5665 74.9103 81.3907C74.8517 81.0538 73.8849 81.0099 73.1085 81.3028Z" fill="#A0EFAF"/>
<path d="M80.6964 83.0752C80.3594 83.1924 80.4913 83.5 81.1358 84.1739C81.4727 84.5401 81.8536 84.9795 81.9854 85.1699C82.2491 85.5655 82.5567 85.4629 82.5567 84.9649C82.5567 84.2617 81.1944 82.8994 80.6964 83.0752Z" fill="#A0EFAF"/>
<path d="M73.2256 83.4122C72.5518 83.8223 72.376 84.7305 72.9766 84.7305C73.0938 84.7305 73.3868 84.5841 73.6212 84.4229C74.1924 83.9835 74.7491 84.1446 75.0274 84.8038C75.2764 85.4044 75.4669 85.5509 75.7452 85.3165C76.2579 84.8917 75.8331 83.7344 75.0274 83.3536C74.3682 83.046 73.7969 83.0606 73.2256 83.4122Z" fill="#A0EFAF"/>
<path d="M78.8359 84.8915C78.2646 85.0527 77.8691 85.4482 77.8691 85.8583C77.8691 86.2831 78.2354 86.4443 78.5723 86.1659C79.2314 85.5947 79.9639 85.8144 80.1836 86.6786C80.3447 87.3085 80.9453 87.3525 81.1504 86.7519C81.5312 85.6825 80.0811 84.5253 78.8359 84.8915Z" fill="#A0EFAF"/>
<path d="M70.8379 85.8438C70.6329 86.3565 70.6622 87.4258 70.8965 88.4073C71.8487 92.4795 77.4004 94.0762 80.3594 91.1465C81.1358 90.3555 81.751 89.1397 81.4874 88.876C81.3995 88.7735 80.1251 88.334 78.6749 87.8799C77.2247 87.4258 74.9835 86.6934 73.6944 86.2539C72.4053 85.8145 71.2628 85.4629 71.1602 85.4629C71.0577 85.4629 70.9112 85.6387 70.8379 85.8438ZM75.0128 87.2793C76.7852 87.8799 78.8067 88.5391 79.5245 88.7588C80.3741 89.0079 80.7989 89.2129 80.7989 89.3594C80.7989 89.4766 80.6963 89.6084 80.5792 89.667C80.1544 89.8135 73.0206 87.6748 71.6876 86.9864C71.2335 86.752 71.1163 86.1954 71.5264 86.1954C71.6583 86.1954 73.2256 86.6788 75.0128 87.2793Z" fill="#A0EFAF"/>
<path d="M50.5499 79.6035C49.8321 79.9404 49.4512 80.2627 49.0264 80.8779L48.7041 81.3613L48.0303 80.8486C46.17 79.4277 43.5333 79.7207 42.1709 81.4932C41.5411 82.2988 41.3506 83.0752 41.4239 84.5107C41.4678 85.5361 41.5411 85.8584 42.0245 86.8252C43.1524 89.0957 46.4043 91.8643 49.4659 93.1387L50.0079 93.3584L50.9307 92.6553C53.3184 90.8535 55.4571 87.9238 56.2188 85.4189C56.9805 82.8701 55.8965 80.2773 53.7286 79.5449C52.7911 79.2227 51.2823 79.252 50.5499 79.6035ZM45.2764 82.167C45.5547 82.4453 45.6426 82.6797 45.6426 83.1924C45.6426 84.3496 45.0274 85.1699 44.1631 85.1699C42.6983 85.1699 42.5958 82.709 44.0313 81.9912C44.5733 81.7129 44.8809 81.7568 45.2764 82.167Z" fill="#A0EFAF"/>
<path d="M68.2012 99.745C65.1837 100.58 63.045 102.601 62.1661 105.458C61.7559 106.776 61.7266 108.988 62.1075 110.292C62.7081 112.343 63.9092 114.027 65.5352 115.111C67.7618 116.591 70.4717 116.957 72.918 116.122C75.1592 115.346 76.8438 113.881 77.796 111.903C78.4405 110.512 78.6749 109.516 78.6602 107.948C78.6456 104.286 76.4922 101.312 72.9034 99.994C71.6436 99.5399 69.3878 99.4228 68.2012 99.745ZM72.669 100.639C75.1739 101.488 77.1514 103.583 77.8106 106.044C78.0743 107.025 78.0743 109.076 77.796 110.116C77.3272 111.947 76.2286 113.5 74.6905 114.496C72.1124 116.21 69.3731 116.386 66.7071 115.038C65.5499 114.452 64.0264 112.943 63.3965 111.742C62.1221 109.31 62.254 105.824 63.6749 103.729C64.9639 101.84 67.0587 100.536 69.2999 100.214C70.1202 100.082 71.6436 100.272 72.669 100.639Z" fill="#A0EFAF"/>
<path d="M72.9327 102.997C72.8741 103.144 72.918 103.29 73.0499 103.363C73.1671 103.437 73.5919 103.686 73.9874 103.935C74.3975 104.169 74.837 104.447 74.9688 104.535C75.1593 104.682 75.2618 104.682 75.3936 104.55C75.6573 104.286 75.2325 103.715 74.4708 103.29C73.5772 102.777 73.0499 102.675 72.9327 102.997Z" fill="#A0EFAF"/>
<path d="M71.9951 105.004C71.5117 105.282 71.1309 105.853 71.1309 106.322C71.1309 106.864 71.541 106.908 71.9805 106.41C72.5078 105.81 73.1377 105.81 73.6797 106.41C74.002 106.776 74.1191 106.835 74.3535 106.703C74.7783 106.469 74.7051 106.044 74.1631 105.443C73.7822 105.019 73.5479 104.901 73.0352 104.857C72.625 104.813 72.2295 104.872 71.9951 105.004Z" fill="#A0EFAF"/>
<path d="M66.2383 105.707C65.6231 106.293 65.4913 106.703 65.7842 107.084C65.9893 107.348 66.004 107.348 66.502 106.806C67.1319 106.132 67.7178 106.073 68.2452 106.644C68.67 107.099 69.1387 107.069 69.1973 106.586C69.2266 106.366 69.0801 106.088 68.7432 105.751C68.2891 105.297 68.1426 105.238 67.4834 105.238C66.8389 105.238 66.6631 105.311 66.2383 105.707Z" fill="#A0EFAF"/>
<path d="M72.5957 108.021C71.2627 108.168 68.9922 108.358 67.5566 108.446C66.1064 108.549 64.876 108.651 64.8027 108.695C64.4072 108.944 64.9492 110.717 65.6963 111.669C67.3076 113.69 70.7207 114.188 73.3281 112.767C74.6758 112.035 75.6133 110.585 75.7744 108.959C75.8476 108.256 75.8183 108.095 75.5986 107.933C75.4375 107.816 75.2471 107.743 75.1738 107.743C75.0859 107.758 73.9287 107.875 72.5957 108.021ZM75.1445 108.593C75.1885 108.651 75.1445 108.812 75.042 108.944C74.8076 109.252 71.5556 109.618 68.1719 109.735C65.7842 109.808 65.5644 109.794 65.4765 109.559C65.418 109.428 65.4472 109.267 65.5498 109.208C65.6377 109.149 67.0146 109.017 68.6113 108.915C70.1933 108.812 71.8926 108.681 72.376 108.607C73.6211 108.446 75.0566 108.432 75.1445 108.593Z" fill="#A0EFAF"/>
<path d="M40.5889 106.688C39.8711 107.011 39.1387 107.802 38.9043 108.52L38.7432 109.047L38.1719 108.754C36.8096 108.065 35.2422 108.314 34.1729 109.384C33.4551 110.102 33.1914 110.834 33.1914 112.079C33.1914 114.306 34.4951 115.888 37.5127 117.338C38.8311 117.968 41.1162 118.715 41.7607 118.715C42.1416 118.715 42.6689 118.129 43.7383 116.532C46.4775 112.431 46.5361 108.124 43.8555 106.791C42.9033 106.322 41.4971 106.278 40.5889 106.688ZM36.2676 110.512C36.6191 110.702 36.8975 111.566 36.7803 112.123C36.502 113.383 35.2568 113.734 34.7295 112.694C34.0703 111.435 35.1396 109.911 36.2676 110.512Z" fill="#A0EFAF"/>
<path d="M57.5811 118.085C54.6074 118.715 52.5273 121.293 52.5273 124.34C52.5273 126.347 53.2012 127.885 54.666 129.262C57.1416 131.576 61.1406 131.386 63.5723 128.822C65.9453 126.347 65.96 122.685 63.6162 120.092C62.2393 118.568 59.5293 117.66 57.5811 118.085ZM61.5801 119.213C62.8105 119.872 63.748 120.824 64.3486 122.055C64.7295 122.816 64.7588 123.036 64.7588 124.501C64.7588 125.981 64.7295 126.186 64.334 126.962C63.8066 128.061 62.6055 129.262 61.5508 129.76C59.9541 130.522 57.8154 130.507 56.248 129.745C55.252 129.262 54.0947 128.046 53.582 126.962C53.2305 126.2 53.1865 125.951 53.1865 124.428C53.1865 122.919 53.2305 122.655 53.5674 121.923C54.2266 120.517 55.2666 119.535 56.7607 118.905C57.4785 118.598 57.7715 118.568 59.0459 118.612C60.4229 118.656 60.5693 118.686 61.5801 119.213Z" fill="#A0EFAF"/>
<path d="M59.9541 120.854C59.7051 121.22 59.3682 121.718 59.2217 121.952L58.9434 122.377L59.3389 122.524C59.8223 122.714 61.4189 122.714 61.5361 122.538C61.6826 122.289 61.1553 121.938 60.6279 121.938H60.1152L60.5107 121.264C60.877 120.634 60.9209 120.18 60.584 120.18C60.4961 120.18 60.2178 120.487 59.9541 120.854Z" fill="#A0EFAF"/>
<path d="M54.4756 123.197C54.3584 123.52 54.6807 123.695 55.4278 123.695C55.7647 123.695 56.043 123.725 56.043 123.754C56.043 123.783 55.9405 124.091 55.8233 124.442C55.6328 124.984 55.6182 125.102 55.8086 125.277C55.9844 125.453 56.043 125.439 56.2188 125.146C56.336 124.955 56.6436 124.442 56.8926 124.018C57.1563 123.578 57.3321 123.168 57.2735 123.095C57.2295 123.022 56.5996 122.963 55.8819 122.963C54.8125 122.963 54.5489 123.007 54.4756 123.197Z" fill="#A0EFAF"/>
<path d="M60.877 124.076C59.9541 124.618 58.4453 125.409 57.5518 125.849C56.6436 126.288 55.8965 126.713 55.8965 126.801C55.8965 127.138 56.5117 127.768 57.2441 128.163C58.6211 128.91 60.4521 128.632 61.8584 127.445C62.8984 126.566 63.3965 124.604 62.8545 123.549C62.7227 123.3 62.6055 123.109 62.5908 123.109C62.5762 123.109 61.7998 123.549 60.877 124.076Z" fill="#A0EFAF"/>
<path d="M2.94243 126.581C2.37114 126.874 1.60942 127.606 1.22856 128.207C0.715869 129.042 0.818408 129.789 1.8438 132.411C2.34185 133.7 3.2647 136.073 3.89458 137.685C5.28618 141.273 9.51958 152.099 11.4092 156.874C12.1709 158.808 13.3721 161.854 14.0752 163.656C14.7784 165.458 15.5108 167.113 15.6866 167.333C15.877 167.553 16.2872 167.846 16.6094 167.992C17.1075 168.212 17.21 168.358 17.4297 169.047C17.752 170.072 18.4551 170.775 19.4219 171.068C19.8174 171.186 22.0147 171.581 24.2852 171.947C33.4698 173.427 37.9375 174.145 43.6651 175.038C46.9756 175.551 50.4327 176.107 51.3555 176.269C52.2784 176.43 54.5928 176.796 56.4825 177.089C58.3721 177.367 61.8438 177.938 64.1729 178.334C66.5166 178.729 68.7872 179.096 69.2266 179.14C70.252 179.257 70.7647 179.14 81.1651 176.605C85.7647 175.478 91.0967 174.188 93.0303 173.72C100.384 171.991 101.541 171.698 101.937 171.493C102.171 171.376 102.537 170.98 102.786 170.6C103.152 170.028 103.211 169.779 103.211 168.959C103.211 167.802 102.947 167.465 101.893 167.216C101.526 167.128 97.8057 166.557 93.6163 165.941C89.4268 165.341 82.7764 164.345 78.8213 163.729C74.8809 163.129 70.4864 162.455 69.0801 162.235L66.5166 161.84L65.3887 158.31C64.7735 156.376 64.2168 154.53 64.1582 154.237L64.0557 153.695L64.7588 154.442C66.1504 155.922 68.4942 156.713 70.5303 156.405C73.4893 155.951 75.7598 153.783 76.5069 150.736C77.0049 148.656 76.2579 146.225 74.5879 144.555C72.8741 142.855 70.5743 142.152 68.3184 142.65C65.3008 143.324 63.5577 145.141 62.9424 148.29L62.6934 149.55L62.0782 147.719C61.7559 146.708 60.7452 143.573 59.8516 140.761C57.5957 133.671 57.5518 133.539 56.9659 132.675C56.087 131.371 55.6182 131.225 51.1211 130.785C49.0411 130.595 43.3135 130.038 38.3916 129.555C33.4844 129.071 27.3174 128.471 24.6954 128.236C19.0411 127.709 10.2227 126.859 7.30767 126.552C4.6563 126.273 3.49907 126.273 2.94243 126.581ZM7.60063 127.65C16.712 128.544 21.7364 129.042 28.6504 129.701C32.8838 130.097 39.7393 130.756 43.8848 131.151C48.0303 131.562 51.9561 131.928 52.6006 131.972C54.1827 132.089 54.8125 132.191 54.6221 132.309C54.5489 132.367 54.4024 132.645 54.2999 132.953C54.1241 133.466 54.1094 133.48 53.6553 133.349C53.1573 133.202 51.8389 133.056 43.6651 132.265C40.7647 131.986 36.1504 131.518 33.4112 131.239C30.6719 130.961 22.7325 130.155 15.7598 129.467C8.78716 128.778 2.98638 128.178 2.86919 128.148C2.69341 128.09 2.73735 127.987 3.05962 127.709C3.57231 127.27 3.7481 127.27 7.60063 127.65ZM6.94145 129.408C9.32915 129.643 14.295 130.141 17.9571 130.507C21.6192 130.858 27.5225 131.459 31.0674 131.811C34.6124 132.177 38.3038 132.543 39.2706 132.631C45.4375 133.187 52.9668 133.979 53.3624 134.11C53.626 134.198 53.9922 134.447 54.1973 134.682C54.6514 135.238 58.9727 148.334 64.9346 167.201C66.2676 171.435 67.3956 174.95 67.4395 175.023C67.4834 175.097 67.2051 175.111 66.795 175.053C64.92 174.789 47.4297 172.094 43.8116 171.522C41.5557 171.156 37.337 170.497 34.4366 170.058C20.9161 167.963 17.3711 167.362 16.7999 167.069C16.5362 166.923 16.1114 165.897 13.5625 159.364C12.7422 157.27 11.585 154.34 10.9991 152.846C9.92974 150.15 5.88677 139.809 3.32329 133.217C1.8438 129.379 1.74126 128.969 2.38579 128.969C2.50298 128.969 4.53911 129.159 6.94145 129.408ZM70.8526 143.178C73.2989 143.646 75.2618 145.478 75.9063 147.938C76.7852 151.234 74.5733 154.838 71.1309 155.717C66.6924 156.845 62.7959 153.109 63.5284 148.407C63.7481 146.986 64.2315 145.961 65.125 145.023C66.5606 143.515 68.7872 142.782 70.8526 143.178ZM73.8995 164.066C76.668 164.506 80.4913 165.092 82.3956 165.37C84.2999 165.648 86.9073 166.029 88.1963 166.234C89.4854 166.439 92.8545 166.937 95.667 167.362C98.4942 167.772 100.823 168.139 100.853 168.168C100.882 168.197 100.882 168.241 100.853 168.27C100.765 168.344 96.3848 169.311 92.0782 170.189C89.9395 170.629 86.878 171.288 85.2666 171.654C83.6553 172.02 81.0186 172.606 79.4073 172.973C77.7959 173.339 75.1592 173.939 73.5479 174.306C71.9366 174.672 70.545 174.965 70.4571 174.965C70.3252 174.965 70.0762 173.705 70.1788 173.544C70.1934 173.515 70.6768 173.441 71.2627 173.354C72.42 173.192 75.4082 172.548 79.92 171.493C81.4874 171.127 83.5088 170.673 84.3877 170.482C86.4971 170.014 86.5118 170.014 86.5118 169.691C86.5118 169.545 86.3946 169.384 86.2627 169.34C85.9991 169.252 75.1299 167.436 70.4424 166.674C68.6553 166.395 67.9082 166.22 67.9082 166.088C67.9082 165.985 67.9961 165.927 68.0987 165.956C68.7139 166.161 76.0967 167.216 76.5948 167.157C77.4444 167.069 80.4327 166.19 80.7549 165.941C81.004 165.751 81.004 165.722 80.7549 165.531C80.6231 165.429 79.5684 165.194 78.4112 165.019C77.2686 164.843 74.7784 164.433 72.8741 164.11L69.4024 163.539L68.4209 163.905C67.879 164.11 67.4102 164.257 67.3956 164.242C67.3663 164.213 67.2491 163.949 67.1172 163.627L66.8829 163.056L67.8643 163.158C68.4209 163.217 71.1309 163.627 73.8995 164.066Z" fill="#A0EFAF"/>
<path d="M69.6661 144.892C69.2413 145.829 68.9337 146.898 69.0655 147.03C69.1534 147.118 69.6808 147.089 70.4571 146.986C71.5265 146.825 71.7169 146.752 71.7169 146.518C71.7169 146.137 71.3653 146.034 70.6036 146.21C70.1202 146.327 69.9591 146.312 70.0177 146.195C70.2667 145.595 70.4278 144.921 70.3546 144.73C70.2081 144.364 69.8858 144.452 69.6661 144.892Z" fill="#A0EFAF"/>
<path d="M71.7754 147.982C71.2041 148.524 69.8711 149.696 68.8018 150.575C67.7471 151.454 66.8828 152.245 66.8828 152.333C66.8828 152.421 67.0586 152.67 67.293 152.89C68.2744 153.827 70.0615 154.047 71.3652 153.388C72.9619 152.582 74.0605 150.971 74.0605 149.447C74.0605 148.29 73.4746 146.972 72.9766 146.986C72.8887 147.001 72.3467 147.44 71.7754 147.982Z" fill="#A0EFAF"/>
<path d="M66.2969 148.305C65.7695 148.451 65.1689 148.612 64.9492 148.656C64.6709 148.715 64.5391 148.847 64.5391 149.037C64.5391 149.374 65.0078 149.433 65.8281 149.198C66.2529 149.066 66.2969 149.081 66.2383 149.301C66.0332 150.077 66.0186 150.385 66.1504 150.648C66.3994 151.117 66.6924 151 66.8096 150.385C66.8682 150.092 67.0732 149.491 67.2783 149.081C67.6006 148.378 67.6299 147.982 67.3516 148.026C67.293 148.041 66.8242 148.158 66.2969 148.305Z" fill="#A0EFAF"/>
</svg>
