<?xml version="1.0" encoding="UTF-8"?>
<svg version="1.1" xmlns="http://www.w3.org/2000/svg" width="512" height="512">
<path d="M0 0 C29.18315888 -0.53348795 56.63383499 0.96184544 83.80078125 12.765625 C86.9322932 14.0983967 86.9322932 14.0983967 90.1484375 14.51953125 C93.10875117 15.01832383 94.82104232 15.8071675 97.3125 17.4375 C98.32763672 18.08525391 98.32763672 18.08525391 99.36328125 18.74609375 C101 20 101 20 102 22 C103.34189957 22.67094978 104.69668689 23.31667586 106.0625 23.9375 C108 25 108 25 109 27 C110.485 27.495 110.485 27.495 112 28 C112.28875 28.639375 112.5775 29.27875 112.875 29.9375 C113.84296411 32.24155236 113.84296411 32.24155236 116.4375 32.9375 C119 34 119 34 120.3125 36.203125 C122.3187861 39.52835844 124.81499432 42.10831898 127.5625 44.8125 C128.05685547 45.31458984 128.55121094 45.81667969 129.06054688 46.33398438 C131.5587639 49.1468463 131.5587639 49.1468463 135 50 C135.06832031 50.54269531 135.13664063 51.08539063 135.20703125 51.64453125 C136.33227743 54.98701128 138.37266258 57.0404886 140.6875 59.6875 C144.87600954 64.55283426 148.60662298 69.53749066 152 75 C152.05607422 73.80503906 152.05607422 73.80503906 152.11328125 72.5859375 C152.47702046 66.72331723 152.78380366 62.07169423 156 57 C157.00251594 55.33484548 158.00286868 53.66838452 159 52 C161.62748631 52.05985162 164.24916995 52.14676224 166.875 52.25 C167.62136719 52.26417969 168.36773437 52.27835938 169.13671875 52.29296875 C171.3046875 52.390625 171.3046875 52.390625 175 53 C176.3828125 54.859375 176.3828125 54.859375 177 57 C177.66 57.99 178.32 58.98 179 60 C179.24050903 61.9172821 179.24050903 61.9172821 179.22705078 64.10424805 C179.22682419 65.3351844 179.22682419 65.3351844 179.22659302 66.59098816 C179.21627045 67.47232925 179.20594788 68.35367035 179.1953125 69.26171875 C179.1924826 70.16751175 179.18965271 71.07330475 179.18673706 72.00654602 C179.17553964 74.90033158 179.15043589 77.79380794 179.125 80.6875 C179.11496963 82.64908407 179.10584388 84.610673 179.09765625 86.57226562 C179.07560173 91.3816296 179.04107489 96.19076237 179 101 C179.66 101.33 180.32 101.66 181 102 C181.598125 102.309375 182.19625 102.61875 182.8125 102.9375 C185.17018416 104.08266088 187.5584947 105.04721744 190 106 C191.66666667 106.66666667 193.33333333 107.33333333 195 108 C195 108.66 195 109.32 195 110 C196.05574219 110.20753906 197.11148438 110.41507812 198.19921875 110.62890625 C214.82227181 114.03188622 230.78394243 118.9905837 245.96875 126.6171875 C248.82626987 128.07517306 248.82626987 128.07517306 251.42578125 128.421875 C255.29020042 129.28975669 258.33447486 131.31960535 261.6875 133.375 C262.36361328 133.77460938 263.03972656 134.17421875 263.73632812 134.5859375 C266.91146752 136.50681785 268.91530002 137.87295004 271 141 C271.66 141.33 272.32 141.66 273 142 C273.66 142.66 274.32 143.32 275 144 C275.66 144.33 276.32 144.66 277 145 C278 146 279 147 280 148 C280.66 148.33 281.32 148.66 282 149 C283.51116045 150.76158132 284.93665829 152.57876766 286.3671875 154.40625 C287.87846799 156.17238857 287.87846799 156.17238857 290.0703125 156.40625 C290.70710938 156.6021875 291.34390625 156.798125 292 157 C292.71279306 158.64746723 293.374555 160.31743031 294 162 C295.780663 163.99345638 295.780663 163.99345638 297.9375 165.875 C325.93836853 193.06815117 340.59857325 234.98453341 341.3515625 273.36083984 C341.64805312 319.39718528 324.7567328 359.95271783 293 393 C290.57841764 395.40735867 288.14844471 397.8012192 285.6796875 400.16015625 C283.77594936 401.99533117 283.77594936 401.99533117 283 405 C281.66666667 405.33333333 280.33333333 405.66666667 279 406 C278.67 406.99 278.34 407.98 278 409 C276.66666667 409.33333333 275.33333333 409.66666667 274 410 C273.67 410.99 273.34 411.98 273 413 C272.01 413.33 271.02 413.66 270 414 C269.01 414.66 268.02 415.32 267 416 C264 418 264 418 261 419 C259.84332778 420.15667222 258.70564292 421.33449669 257.625 422.5625 C256 424 256 424 254.125 424.4375 C251.79475383 424.89337949 251.79475383 424.89337949 249.6875 426.9375 C246.54212772 429.35139036 243.81620978 430.02860115 240 431 C238.6520257 431.63654342 237.31403276 432.29605388 236 433 C235.01 433.33 234.02 433.66 233 434 C232.34 434.33 231.68 434.66 231 435 C229.29873731 435.56708756 227.5938468 436.1241647 225.87890625 436.6484375 C221.67529333 437.96694003 218.44844506 439.19015588 215 442 C214.05253906 442.15855469 214.05253906 442.15855469 213.0859375 442.3203125 C210.20449969 443.25920797 209.51722456 444.70559031 207.9375 447.25 C207.42703125 448.06082031 206.9165625 448.87164062 206.390625 449.70703125 C205.93171875 450.46371094 205.4728125 451.22039062 205 452 C204.401875 452.969375 203.80375 453.93875 203.1875 454.9375 C202.42009149 456.27036742 201.68781558 457.62436883 201 459 C199 462 199 462 196.875 462.6875 C196.25625 462.790625 195.6375 462.89375 195 463 C195 463.66 195 464.32 195 465 C194.27296875 465.12246094 193.5459375 465.24492187 192.796875 465.37109375 C190.04859471 465.98907298 187.81711061 466.92201614 185.25 468.0625 C174.94850223 471.86291742 163.30210832 471.4176564 153.296875 466.97265625 C150.98211877 465.89464053 150.98211877 465.89464053 148.265625 465.49609375 C147.14414062 465.25052734 147.14414062 465.25052734 146 465 C145.67 464.34 145.34 463.68 145 463 C144.01 462.67 143.02 462.34 142 462 C141.28136902 460.69394038 140.62571981 459.3530325 140 458 C138.71979826 456.10280081 137.40435334 454.22910648 136.0625 452.375 C135.37285156 451.41335938 134.68320313 450.45171875 133.97265625 449.4609375 C131.90651092 446.88337006 129.94409936 445.47204968 127 444 C126.01 443.34 125.02 442.68 124 442 C122.34763368 441.58419071 120.67777815 441.23460655 119 440.9375 C112.8908819 439.8374951 107.6690341 437.56286847 102.0078125 435.05859375 C99.09076571 434.03194482 97.05703318 433.78002898 94 434 C94 433.34 94 432.68 94 432 C91.69 431.67 89.38 431.34 87 431 C87 430.34 87 429.68 87 429 C86.113125 428.9175 85.22625 428.835 84.3125 428.75 C80.54938397 427.89797373 78.91173868 426.45199047 76 424 C75.2575 423.814375 74.515 423.62875 73.75 423.4375 C73.1725 423.293125 72.595 423.14875 72 423 C71.505 421.515 71.505 421.515 71 420 C69.906875 419.690625 68.81375 419.38125 67.6875 419.0625 C63.76811716 417.9331863 62.58185727 417.02700507 60 414 C57.30105946 411.04803379 55.82766553 409.92391927 52 409 C51.505 407.515 51.505 407.515 51 406 C50.360625 405.855625 49.72125 405.71125 49.0625 405.5625 C48.381875 405.376875 47.70125 405.19125 47 405 C46.33297133 403.66684773 45.66637095 402.33348115 45 401 C43.31721525 399.07541535 43.31721525 399.07541535 41.33203125 397.20703125 C40.60306641 396.49353516 39.87410156 395.78003906 39.12304688 395.04492188 C37.60254351 393.57583029 36.08171883 392.10707117 34.56054688 390.63867188 C30.06667577 386.23932567 26.10661476 381.75757153 22.41674805 376.65893555 C21.94922119 376.11148682 21.48169434 375.56403809 21 375 C20.34 375 19.68 375 19 375 C18.90847656 374.45859375 18.81695312 373.9171875 18.72265625 373.359375 C17.77744394 370.27338455 16.19381395 367.95836671 14.4375 365.25 C-2.25428197 338.73218376 -11.45387323 308.78649178 -11.3125 277.375 C-11.30758545 276.06829346 -11.3026709 274.76158691 -11.29760742 273.4152832 C-11.0949356 256.5311618 -8.40514067 240.96571756 -3 225 C-2.77973145 224.33548828 -2.55946289 223.67097656 -2.33251953 222.98632812 C4.50481913 202.62823916 15.48218783 183.16621408 30.57421875 167.76171875 C32.14664997 165.81879689 32.42847598 164.39137681 33 162 C34.65532623 160.98133771 36.32260138 159.98189187 38 159 C38.33 158.319375 38.66 157.63875 39 156.9375 C40.40270345 154.21976206 42.21312698 154.0875602 45 153 C46.69497424 151.06288658 47.85244474 149.29511052 49 147 C49.99 146.7834375 49.99 146.7834375 51 146.5625 C51.66 146.376875 52.32 146.19125 53 146 C53.33 145.01 53.66 144.02 54 143 C54.99 142.67 55.98 142.34 57 142 C57.61875 141.34 58.2375 140.68 58.875 140 C61.28751935 137.72939356 62.76077175 137.35991425 66 137 C66.33 136.01 66.66 135.02 67 134 C69.4375 132.875 69.4375 132.875 72 132 C74.06479169 131.10740365 74.06479169 131.10740365 75.5 129.4375 C77 128 77 128 79 128 C78.566875 127.566875 78.13375 127.13375 77.6875 126.6875 C76.61453277 125.61453277 75.55085113 124.53213659 74.5 123.4375 C72.3249639 121.3530904 70.18178876 120.06925286 67.375 119 C65 118 65 118 64 116 C62.65810043 115.32905022 61.30331311 114.68332414 59.9375 114.0625 C58 113 58 113 57 111 C55.515 110.505 55.515 110.505 54 110 C53.67 109.01 53.34 108.02 53 107 C52.360625 106.855625 51.72125 106.71125 51.0625 106.5625 C50.0415625 106.2840625 50.0415625 106.2840625 49 106 C48.690625 105.360625 48.38125 104.72125 48.0625 104.0625 C46.60395339 101.23120365 44.92329192 101.06949705 42 100 C40.01381041 98.43942247 39.12324593 97.64331669 38.64453125 95.14453125 C37.81415146 92.38163123 36.45267058 91.1171064 34.4375 89.0625 C18.16135312 71.24867793 9.24046803 46.03365991 3.625 23 C3.37411621 21.97398682 3.12323242 20.94797363 2.86474609 19.89086914 C1.32756993 13.27458444 0.43193941 6.77761294 0 0 Z M81 126 C81 126.66 81 127.32 81 128 C81.66 128 82.32 128 83 128 C83 127.34 83 126.68 83 126 C82.34 126 81.68 126 81 126 Z " fill="#7BB92E" transform="translate(91,21)"/>
<path d="M0 0 C29.18315888 -0.53348795 56.63383499 0.96184544 83.80078125 12.765625 C86.9322932 14.0983967 86.9322932 14.0983967 90.1484375 14.51953125 C93.10875117 15.01832383 94.82104232 15.8071675 97.3125 17.4375 C98.32763672 18.08525391 98.32763672 18.08525391 99.36328125 18.74609375 C101 20 101 20 102 22 C103.34189957 22.67094978 104.69668689 23.31667586 106.0625 23.9375 C108 25 108 25 109 27 C110.485 27.495 110.485 27.495 112 28 C112.28875 28.639375 112.5775 29.27875 112.875 29.9375 C113.84296411 32.24155236 113.84296411 32.24155236 116.4375 32.9375 C119 34 119 34 120.3125 36.203125 C122.3187861 39.52835844 124.81499432 42.10831898 127.5625 44.8125 C128.05685547 45.31458984 128.55121094 45.81667969 129.06054688 46.33398438 C131.5587639 49.1468463 131.5587639 49.1468463 135 50 C135.06832031 50.54269531 135.13664063 51.08539063 135.20703125 51.64453125 C136.33227743 54.98701128 138.37266258 57.0404886 140.6875 59.6875 C144.87600954 64.55283426 148.60662298 69.53749066 152 75 C152.05607422 73.80503906 152.05607422 73.80503906 152.11328125 72.5859375 C152.47702046 66.72331723 152.78380366 62.07169423 156 57 C157.00251594 55.33484548 158.00286868 53.66838452 159 52 C161.62748631 52.05985162 164.24916995 52.14676224 166.875 52.25 C167.62136719 52.26417969 168.36773437 52.27835938 169.13671875 52.29296875 C171.3046875 52.390625 171.3046875 52.390625 175 53 C176.3828125 54.859375 176.3828125 54.859375 177 57 C177.66 57.99 178.32 58.98 179 60 C179.24050903 61.9172821 179.24050903 61.9172821 179.22705078 64.10424805 C179.22682419 65.3351844 179.22682419 65.3351844 179.22659302 66.59098816 C179.21627045 67.47232925 179.20594788 68.35367035 179.1953125 69.26171875 C179.1924826 70.16751175 179.18965271 71.07330475 179.18673706 72.00654602 C179.17553964 74.90033158 179.15043589 77.79380794 179.125 80.6875 C179.11496963 82.64908407 179.10584388 84.610673 179.09765625 86.57226562 C179.07560173 91.3816296 179.04107489 96.19076237 179 101 C179.66 101.33 180.32 101.66 181 102 C175.375 103.125 175.375 103.125 172 102 C161.8086895 101.31086067 152.38585874 101.45034453 144.125 107.9375 C138.83317375 111.74012205 133.06279665 112.41282441 126.78637695 113.53759766 C114.46322963 115.75755556 103.05506515 119.65852051 91.66918945 124.8527832 C87.71840602 126.58830763 85.15871792 127.43738212 81 126 C81 126.66 81 127.32 81 128 C79 128 79 128 77.5625 126.6875 C77.046875 126.130625 76.53125 125.57375 76 125 C73.38445913 122.27547826 70.96084606 120.36603659 67.375 119 C65 118 65 118 64 116 C62.65810043 115.32905022 61.30331311 114.68332414 59.9375 114.0625 C58 113 58 113 57 111 C56.01 110.67 55.02 110.34 54 110 C53.67 109.01 53.34 108.02 53 107 C52.360625 106.855625 51.72125 106.71125 51.0625 106.5625 C50.0415625 106.2840625 50.0415625 106.2840625 49 106 C48.690625 105.360625 48.38125 104.72125 48.0625 104.0625 C46.60395339 101.23120365 44.92329192 101.06949705 42 100 C40.01381041 98.43942247 39.12324593 97.64331669 38.64453125 95.14453125 C37.81415146 92.38163123 36.45267058 91.1171064 34.4375 89.0625 C18.16135312 71.24867793 9.24046803 46.03365991 3.625 23 C3.37411621 21.97398682 3.12323242 20.94797363 2.86474609 19.89086914 C1.32756993 13.27458444 0.43193941 6.77761294 0 0 Z " fill="#257B36" transform="translate(91,21)"/>
<path d="M0 0 C0 0.66 0 1.32 0 2 C-2.03334946 3.53034697 -4.07634982 4.95920646 -6.1875 6.375 C-43.12073512 31.98223155 -65.68680055 73.15137345 -73.6875 116.74609375 C-80.27096882 160.68160443 -68.37182938 206.04566141 -42.60717773 241.99267578 C-37.96279372 248.26774804 -32.84819629 254.01460206 -27.38330078 259.58154297 C-26.10789793 260.88935987 -24.86293818 262.22668245 -23.62109375 263.56640625 C-3.68547122 284.58145335 25.1989474 301.22146382 53.28125 308.359375 C54.24909424 308.60929199 55.21693848 308.85920898 56.21411133 309.11669922 C58.14954939 309.61029234 60.08944812 310.08681353 62.03393555 310.54345703 C70.78055205 312.75855449 76.972316 316.58314891 81.875 324.3125 C83.9003934 327.74963968 83.9003934 327.74963968 87 330 C87 330.66 87 331.32 87 332 C87.55171875 332.27585937 88.1034375 332.55171875 88.671875 332.8359375 C92.78125 334.890625 96.890625 336.9453125 101 339 C96.37762867 344.20389546 89.64704934 345.90335223 82.8828125 346.39453125 C75.13240317 346.69215532 68.4855882 346.166368 61.296875 342.97265625 C58.98211877 341.89464053 58.98211877 341.89464053 56.265625 341.49609375 C55.14414062 341.25052734 55.14414062 341.25052734 54 341 C53.67 340.34 53.34 339.68 53 339 C52.01 338.67 51.02 338.34 50 338 C49.28136902 336.69394038 48.62571981 335.3530325 48 334 C46.71979826 332.10280081 45.40435334 330.22910648 44.0625 328.375 C43.37285156 327.41335938 42.68320313 326.45171875 41.97265625 325.4609375 C39.90651092 322.88337006 37.94409936 321.47204968 35 320 C34.01 319.34 33.02 318.68 32 318 C30.34763368 317.58419071 28.67777815 317.23460655 27 316.9375 C20.8908819 315.8374951 15.6690341 313.56286847 10.0078125 311.05859375 C7.09076571 310.03194482 5.05703318 309.78002898 2 310 C2 309.34 2 308.68 2 308 C-0.31 307.67 -2.62 307.34 -5 307 C-5 306.34 -5 305.68 -5 305 C-5.886875 304.9175 -6.77375 304.835 -7.6875 304.75 C-11.45061603 303.89797373 -13.08826132 302.45199047 -16 300 C-16.7425 299.814375 -17.485 299.62875 -18.25 299.4375 C-18.8275 299.293125 -19.405 299.14875 -20 299 C-20.495 297.515 -20.495 297.515 -21 296 C-22.093125 295.690625 -23.18625 295.38125 -24.3125 295.0625 C-28.23188284 293.9331863 -29.41814273 293.02700507 -32 290 C-34.69894054 287.04803379 -36.17233447 285.92391927 -40 285 C-40.495 283.515 -40.495 283.515 -41 282 C-41.639375 281.855625 -42.27875 281.71125 -42.9375 281.5625 C-43.618125 281.376875 -44.29875 281.19125 -45 281 C-45.66702867 279.66684773 -46.33362905 278.33348115 -47 277 C-48.68278475 275.07541535 -48.68278475 275.07541535 -50.66796875 273.20703125 C-51.39693359 272.49353516 -52.12589844 271.78003906 -52.87695312 271.04492188 C-54.39745649 269.57583029 -55.91828117 268.10707117 -57.43945312 266.63867188 C-61.93332423 262.23932567 -65.89338524 257.75757153 -69.58325195 252.65893555 C-70.28454224 251.83776245 -70.28454224 251.83776245 -71 251 C-71.66 251 -72.32 251 -73 251 C-73.09152344 250.45859375 -73.18304688 249.9171875 -73.27734375 249.359375 C-74.22255606 246.27338455 -75.80618605 243.95836671 -77.5625 241.25 C-94.25428197 214.73218376 -103.45387323 184.78649178 -103.3125 153.375 C-103.30758545 152.06829346 -103.3026709 150.76158691 -103.29760742 149.4152832 C-103.0949356 132.5311618 -100.40514067 116.96571756 -95 101 C-94.77973145 100.33548828 -94.55946289 99.67097656 -94.33251953 98.98632812 C-87.49518087 78.62823916 -76.51781217 59.16621408 -61.42578125 43.76171875 C-59.85335003 41.81879689 -59.57152402 40.39137681 -59 38 C-57.34467377 36.98133771 -55.67739862 35.98189187 -54 35 C-53.67 34.319375 -53.34 33.63875 -53 32.9375 C-51.59729655 30.21976206 -49.78687302 30.0875602 -47 29 C-45.30502576 27.06288658 -44.14755526 25.29511052 -43 23 C-42.34 22.855625 -41.68 22.71125 -41 22.5625 C-40.34 22.376875 -39.68 22.19125 -39 22 C-38.505 20.515 -38.505 20.515 -38 19 C-37.01 18.67 -36.02 18.34 -35 18 C-34.38125 17.34 -33.7625 16.68 -33.125 16 C-30.71248065 13.72939356 -29.23922825 13.35991425 -26 13 C-25.67 12.01 -25.34 11.02 -25 10 C-22.5625 8.875 -22.5625 8.875 -20 8 C-17.94751182 7.14076376 -17.94751182 7.14076376 -16.75 5.5 C-14.32330433 3.41997514 -12.14015047 3.48310007 -9 3 C-7.73643403 2.51300062 -6.48585535 1.99106021 -5.25 1.4375 C-2 0 -2 0 0 0 Z " fill="#6AA924" transform="translate(183,145)"/>
<path d="M0 0 C2.62748631 0.05985162 5.24916995 0.14676224 7.875 0.25 C8.62136719 0.26417969 9.36773437 0.27835937 10.13671875 0.29296875 C12.3046875 0.390625 12.3046875 0.390625 16 1 C17.3828125 2.859375 17.3828125 2.859375 18 5 C18.99 6.485 18.99 6.485 20 8 C20.24050903 9.9172821 20.24050903 9.9172821 20.22705078 12.10424805 C20.22689972 12.92487228 20.22674866 13.74549652 20.22659302 14.59098816 C20.21627045 15.47232925 20.20594788 16.35367035 20.1953125 17.26171875 C20.1924826 18.16751175 20.18965271 19.07330475 20.18673706 20.00654602 C20.17553964 22.90033158 20.15043589 25.79380794 20.125 28.6875 C20.11496963 30.64908407 20.10584388 32.610673 20.09765625 34.57226562 C20.07560173 39.3816296 20.04107489 44.19076237 20 49 C20.66 49.33 21.32 49.66 22 50 C17.39612021 51.00053923 13.75549487 50.86574911 9.125 50.0625 C7.97257812 49.86785156 6.82015625 49.67320313 5.6328125 49.47265625 C4.32957031 49.23869141 4.32957031 49.23869141 3 49 C2.80664062 48.32453125 2.61328125 47.6490625 2.4140625 46.953125 C2.15367187 46.06109375 1.89328125 45.1690625 1.625 44.25 C1.36976563 43.36828125 1.11453125 42.4865625 0.8515625 41.578125 C0.08898863 39.02759671 0.08898863 39.02759671 -1.1015625 36.921875 C-2 35 -2 35 -2 31 C-2.66 31 -3.32 31 -4 31 C-6.44329463 27.24258275 -6.33236602 23.45579191 -6.3125 19.125 C-6.32861328 18.43019531 -6.34472656 17.73539063 -6.36132812 17.01953125 C-6.36584913 12.21822118 -5.43846438 9.100275 -3 5 C-2.443125 4.05125 -1.88625 3.1025 -1.3125 2.125 C-0.6628125 1.073125 -0.6628125 1.073125 0 0 Z " fill="#674D2C" transform="translate(250,73)"/>
<path d="M0 0 C9.9 0 19.8 0 30 0 C30 0.33 30 0.66 30 1 C20.1 1 10.2 1 0 1 C0 0.67 0 0.34 0 0 Z " fill="#257A37" transform="translate(92,19)"/>
<path d="M0 0 C0.33 0 0.66 0 1 0 C1 8.58 1 17.16 1 26 C0.67 26 0.34 26 0 26 C0 17.42 0 8.84 0 0 Z " fill="#82B343" transform="translate(433,285)"/>
<path d="M0 0 C0.33 0 0.66 0 1 0 C1 8.58 1 17.16 1 26 C0.67 26 0.34 26 0 26 C0 17.42 0 8.84 0 0 Z " fill="#70A436" transform="translate(78,285)"/>
<path d="M0 0 C5.61 0 11.22 0 17 0 C17 0.33 17 0.66 17 1 C11.39 1 5.78 1 0 1 C0 0.67 0 0.34 0 0 Z " fill="#6DAA25" transform="translate(253,492)"/>
<path d="M0 0 C2.97 0 5.94 0 9 0 C9 0.33 9 0.66 9 1 C6.03 1 3.06 1 0 1 C0 0.67 0 0.34 0 0 Z " fill="#654D32" transform="translate(253,72)"/>
<path d="M0 0 C0.33 0 0.66 0 1 0 C1 2.64 1 5.28 1 8 C0.67 8 0.34 8 0 8 C0 5.36 0 2.72 0 0 Z " fill="#7DB92E" transform="translate(432,275)"/>
<path d="M0 0 C1.32 0.99 2.64 1.98 4 3 C3.67 3.66 3.34 4.32 3 5 C1.5 3.625 1.5 3.625 0 2 C0 1.34 0 0.68 0 0 Z " fill="#7DBB2F" transform="translate(384,180)"/>
<path d="M0 0 C0.33 0 0.66 0 1 0 C1 2.31 1 4.62 1 7 C0.67 7 0.34 7 0 7 C0 4.69 0 2.38 0 0 Z " fill="#6AA821" transform="translate(79,314)"/>
<path d="M0 0 C0.33 0 0.66 0 1 0 C1 2.31 1 4.62 1 7 C0.67 7 0.34 7 0 7 C0 4.69 0 2.38 0 0 Z " fill="#7DBA2E" transform="translate(432,313)"/>
<path d="M0 0 C0.33 0 0.66 0 1 0 C1 2.31 1 4.62 1 7 C0.67 7 0.34 7 0 7 C0 4.69 0 2.38 0 0 Z " fill="#69A721" transform="translate(79,275)"/>
<path d="M0 0 C0.33 0 0.66 0 1 0 C1 2.31 1 4.62 1 7 C0.67 7 0.34 7 0 7 C0 4.69 0 2.38 0 0 Z " fill="#5A5331" transform="translate(242,85)"/>
<path d="M0 0 C2.31 0 4.62 0 7 0 C7 0.33 7 0.66 7 1 C4.69 1 2.38 1 0 1 C0 0.67 0 0.34 0 0 Z " fill="#2B763C" transform="translate(124,20)"/>
<path d="M0 0 C0.33 0 0.66 0 1 0 C1 1.98 1 3.96 1 6 C0.67 6 0.34 6 0 6 C0 4.02 0 2.04 0 0 Z " fill="#2C763E" transform="translate(90,25)"/>
<path d="M0 0 C0.99 0.99 1.98 1.98 3 3 C2.01 2.67 1.02 2.34 0 2 C0 1.34 0 0.68 0 0 Z " fill="#6AA725" transform="translate(126,413)"/>
<path d="M0 0 C0.33 0 0.66 0 1 0 C1 1.65 1 3.3 1 5 C0.67 5 0.34 5 0 5 C0 3.35 0 1.7 0 0 Z " fill="#6AA624" transform="translate(81,327)"/>
<path d="M0 0 C0.33 0 0.66 0 1 0 C1 1.65 1 3.3 1 5 C0.67 5 0.34 5 0 5 C0 3.35 0 1.7 0 0 Z " fill="#72A43A" transform="translate(80,322)"/>
<path d="M0 0 C0.33 0 0.66 0 1 0 C1 1.65 1 3.3 1 5 C0.67 5 0.34 5 0 5 C0 3.35 0 1.7 0 0 Z " fill="#82B442" transform="translate(431,321)"/>
<path d="M0 0 C0.33 0 0.66 0 1 0 C1 1.65 1 3.3 1 5 C0.67 5 0.34 5 0 5 C0 3.35 0 1.7 0 0 Z " fill="#81B243" transform="translate(431,269)"/>
<path d="M0 0 C0.33 0 0.66 0 1 0 C1 1.65 1 3.3 1 5 C0.67 5 0.34 5 0 5 C0 3.35 0 1.7 0 0 Z " fill="#70A438" transform="translate(80,269)"/>
<path d="M0 0 C0.33 0 0.66 0 1 0 C1 1.65 1 3.3 1 5 C0.67 5 0.34 5 0 5 C0 3.35 0 1.7 0 0 Z " fill="#7DBA2E" transform="translate(430,264)"/>
<path d="M0 0 C1.65 0 3.3 0 5 0 C5 0.33 5 0.66 5 1 C3.35 1 1.7 1 0 1 C0 0.67 0 0.34 0 0 Z " fill="#80B53F" transform="translate(286,130)"/>
<path d="M0 0 C0.33 0 0.66 0 1 0 C1 1.65 1 3.3 1 5 C0.67 5 0.34 5 0 5 C0 3.35 0 1.7 0 0 Z " fill="#247A36" transform="translate(91,32)"/>
<path d="M0 0 C1.65 0 3.3 0 5 0 C5 0.33 5 0.66 5 1 C3.35 1 1.7 1 0 1 C0 0.67 0 0.34 0 0 Z " fill="#2D753E" transform="translate(139,22)"/>
<path d="M0 0 C1.65 0 3.3 0 5 0 C5 0.33 5 0.66 5 1 C3.35 1 1.7 1 0 1 C0 0.67 0 0.34 0 0 Z " fill="#257B37" transform="translate(133,21)"/>
<path d="M0 0 C4 1 4 1 4 1 Z " fill="#6DA432" transform="translate(270,491)"/>
<path d="M0 0 C4 1 4 1 4 1 Z " fill="#6DA62D" transform="translate(249,491)"/>
<path d="M0 0 C1 4 1 4 1 4 Z " fill="#6DA733" transform="translate(82,333)"/>
<path d="M0 0 C1 4 1 4 1 4 Z " fill="#7CBA2C" transform="translate(430,327)"/>
<path d="M0 0 C1 4 1 4 1 4 Z " fill="#6BAA26" transform="translate(81,264)"/>
<path d="M0 0 C1 4 1 4 1 4 Z " fill="#71A532" transform="translate(82,259)"/>
<path d="M0 0 C4 1 4 1 4 1 Z " fill="#7DB830" transform="translate(292,131)"/>
<path d="M0 0 C1 4 1 4 1 4 Z " fill="#634D33" transform="translate(271,81)"/>
<path d="M0 0 C1 4 1 4 1 4 Z " fill="#277A38" transform="translate(93,42)"/>
<path d="M0 0 C1 4 1 4 1 4 Z " fill="#30753E" transform="translate(92,38)"/>
<path d="M0 0 C4 1 4 1 4 1 Z " fill="#247A37" transform="translate(144,23)"/>
<path d="M0 0 C3 1 3 1 3 1 Z " fill="#6CAA26" transform="translate(274,490)"/>
<path d="M0 0 C3 1 3 1 3 1 Z " fill="#6BAB27" transform="translate(246,490)"/>
<path d="M0 0 C3 1 3 1 3 1 Z " fill="#70A82F" transform="translate(212,463)"/>
<path d="M0 0 C3 1 3 1 3 1 Z " fill="#6AA922" transform="translate(209,462)"/>
<path d="M0 0 C3 1 3 1 3 1 Z " fill="#6FA431" transform="translate(205,461)"/>
<path d="M0 0 C0.66 0.66 1.32 1.32 2 2 C1.34 2 0.68 2 0 2 C0 1.34 0 0.68 0 0 Z " fill="#6BA825" transform="translate(129,416)"/>
<path d="" fill="#68A229" transform="translate(0,0)"/>
<path d="" fill="#7BBA2D" transform="translate(0,0)"/>
<path d="" fill="#7FB539" transform="translate(0,0)"/>
<path d="" fill="#7DBA2E" transform="translate(0,0)"/>
<path d="" fill="#67A61F" transform="translate(0,0)"/>
<path d="" fill="#71A631" transform="translate(0,0)"/>
<path d="" fill="#80B43D" transform="translate(0,0)"/>
<path d="" fill="#7EB932" transform="translate(0,0)"/>
<path d="" fill="#6CA928" transform="translate(0,0)"/>
<path d="" fill="#83B43E" transform="translate(0,0)"/>
<path d="" fill="#82B73C" transform="translate(0,0)"/>
<path d="" fill="#7CB82F" transform="translate(0,0)"/>
<path d="" fill="#6CA826" transform="translate(0,0)"/>
<path d="" fill="#80B43F" transform="translate(0,0)"/>
<path d="" fill="#72A433" transform="translate(0,0)"/>
<path d="" fill="#7CBA2E" transform="translate(0,0)"/>
<path d="" fill="#7DBA2D" transform="translate(0,0)"/>
<path d="" fill="#7CB736" transform="translate(0,0)"/>
<path d="M0 0 C3 1 3 1 3 1 Z " fill="#80B832" transform="translate(322,140)"/>
<path d="M0 0 C3 1 3 1 3 1 Z " fill="#7DB738" transform="translate(317,138)"/>
<path d="M0 0 C3 1 3 1 3 1 Z " fill="#7CBA2E" transform="translate(314,137)"/>
<path d="M0 0 C3 1 3 1 3 1 Z " fill="#80B738" transform="translate(311,136)"/>
<path d="M0 0 C3 1 3 1 3 1 Z " fill="#7DB92D" transform="translate(308,135)"/>
<path d="M0 0 C3 1 3 1 3 1 Z " fill="#81B63B" transform="translate(305,134)"/>
<path d="M0 0 C3 1 3 1 3 1 Z " fill="#7DB82F" transform="translate(301,133)"/>
<path d="M0 0 C3 1 3 1 3 1 Z " fill="#80B23D" transform="translate(297,132)"/>
<path d="" fill="#684D2E" transform="translate(0,0)"/>
<path d="" fill="#267A37" transform="translate(0,0)"/>
<path d="" fill="#2A783B" transform="translate(0,0)"/>
<path d="" fill="#267A38" transform="translate(0,0)"/>
<path d="" fill="#2C773A" transform="translate(0,0)"/>
<path d="M0 0 C3 1 3 1 3 1 Z " fill="#297B30" transform="translate(168,30)"/>
<path d="M0 0 C3 1 3 1 3 1 Z " fill="#257B37" transform="translate(160,27)"/>
<path d="M0 0 C3 1 3 1 3 1 Z " fill="#267B3A" transform="translate(153,25)"/>
<path d="M0 0 C3 1 3 1 3 1 Z " fill="#2B773B" transform="translate(149,24)"/>
<path d="M0 0 C2 1 2 1 2 1 Z " fill="#6FA92C" transform="translate(277,489)"/>
<path d="M0 0 C2 1 2 1 2 1 Z " fill="#6EA92C" transform="translate(244,489)"/>
<path d="M0 0 C2 1 2 1 2 1 Z " fill="#6AA922" transform="translate(279,488)"/>
<path d="M0 0 C2 1 2 1 2 1 Z " fill="#68A924" transform="translate(242,488)"/>
<path d="M0 0 C2 1 2 1 2 1 Z " fill="#6BAA25" transform="translate(281,487)"/>
<path d="M0 0 C2 1 2 1 2 1 Z " fill="#6DAA29" transform="translate(240,487)"/>
<path d="" fill="#6AAA1F" transform="translate(0,0)"/>
<path d="" fill="#7DBB2E" transform="translate(0,0)"/>
<path d="" fill="#69A523" transform="translate(0,0)"/>
<path d="" fill="#7CBA2F" transform="translate(0,0)"/>
<path d="M0 0 C2 1 2 1 2 1 Z " fill="#69A924" transform="translate(216,464)"/>
<path d="M0 0 C2 1 2 1 2 1 Z " fill="#7FB53B" transform="translate(311,459)"/>
<path d="M0 0 C2 1 2 1 2 1 Z " fill="#6FA42D" transform="translate(199,459)"/>
<path d="M0 0 C2 1 2 1 2 1 Z " fill="#80B930" transform="translate(314,458)"/>
<path d="M0 0 C2 1 2 1 2 1 Z " fill="#6BA922" transform="translate(196,458)"/>
<path d="M0 0 C2 1 2 1 2 1 Z " fill="#7DB734" transform="translate(317,457)"/>
<path d="M0 0 C2 1 2 1 2 1 Z " fill="#6EA82A" transform="translate(193,457)"/>
<path d="M0 0 C2 1 2 1 2 1 Z " fill="#6EAD25" transform="translate(190,456)"/>
<path d="M0 0 C2 1 2 1 2 1 Z " fill="#7EB634" transform="translate(322,455)"/>
<path d="M0 0 C2 1 2 1 2 1 Z " fill="#6AA721" transform="translate(188,455)"/>
<path d="M0 0 C2 1 2 1 2 1 Z " fill="#7EB838" transform="translate(327,453)"/>
<path d="M0 0 C2 1 2 1 2 1 Z " fill="#6CA52B" transform="translate(183,453)"/>
<path d="M0 0 C2 1 2 1 2 1 Z " fill="#7CBB2E" transform="translate(329,452)"/>
<path d="M0 0 C2 1 2 1 2 1 Z " fill="#6AA823" transform="translate(181,452)"/>
<path d="M0 0 C2 1 2 1 2 1 Z " fill="#6EAB29" transform="translate(176,450)"/>
<path d="M0 0 C2 1 2 1 2 1 Z " fill="#80B933" transform="translate(343,445)"/>
<path d="M0 0 C2 1 2 1 2 1 Z " fill="#6CAA22" transform="translate(165,444)"/>
<path d="M0 0 C2 1 2 1 2 1 Z " fill="#7CB930" transform="translate(350,441)"/>
<path d="M0 0 C2 1 2 1 2 1 Z " fill="#6CA925" transform="translate(160,441)"/>
<path d="M0 0 C2 1 2 1 2 1 Z " fill="#6EAA26" transform="translate(148,433)"/>
<path d="" fill="#7EBB30" transform="translate(0,0)"/>
<path d="" fill="#6AAA23" transform="translate(0,0)"/>
<path d="" fill="#7DBB30" transform="translate(0,0)"/>
<path d="" fill="#67A621" transform="translate(0,0)"/>
<path d="" fill="#7CB930" transform="translate(0,0)"/>
<path d="" fill="#6CAB26" transform="translate(0,0)"/>
<path d="" fill="#6DAB22" transform="translate(0,0)"/>
<path d="" fill="#7DB92E" transform="translate(0,0)"/>
<path d="" fill="#6DA827" transform="translate(0,0)"/>
<path d="" fill="#7EBA2F" transform="translate(0,0)"/>
<path d="" fill="#6AA823" transform="translate(0,0)"/>
<path d="" fill="#7DB630" transform="translate(0,0)"/>
<path d="" fill="#7BB92D" transform="translate(0,0)"/>
<path d="" fill="#7EB736" transform="translate(0,0)"/>
<path d="" fill="#69A429" transform="translate(0,0)"/>
<path d="" fill="#7DBA2F" transform="translate(0,0)"/>
<path d="" fill="#6BAB26" transform="translate(0,0)"/>
<path d="" fill="#70A832" transform="translate(0,0)"/>
<path d="" fill="#7DB837" transform="translate(0,0)"/>
<path d="" fill="#7CB931" transform="translate(0,0)"/>
<path d="" fill="#6CA926" transform="translate(0,0)"/>
<path d="" fill="#7DB738" transform="translate(0,0)"/>
<path d="" fill="#6EAA24" transform="translate(0,0)"/>
<path d="" fill="#71A732" transform="translate(0,0)"/>
<path d="" fill="#6DAC25" transform="translate(0,0)"/>
<path d="" fill="#81B63D" transform="translate(0,0)"/>
<path d="" fill="#71A833" transform="translate(0,0)"/>
<path d="" fill="#6EAB26" transform="translate(0,0)"/>
<path d="" fill="#71A82D" transform="translate(0,0)"/>
<path d="" fill="#7CB830" transform="translate(0,0)"/>
<path d="" fill="#6BA825" transform="translate(0,0)"/>
<path d="" fill="#7EB539" transform="translate(0,0)"/>
<path d="" fill="#6FA82D" transform="translate(0,0)"/>
<path d="" fill="#7CBA2D" transform="translate(0,0)"/>
<path d="" fill="#68A821" transform="translate(0,0)"/>
<path d="" fill="#7DB835" transform="translate(0,0)"/>
<path d="" fill="#6FA632" transform="translate(0,0)"/>
<path d="" fill="#69AE24" transform="translate(0,0)"/>
<path d="" fill="#7DB92C" transform="translate(0,0)"/>
<path d="" fill="#7EB831" transform="translate(0,0)"/>
<path d="" fill="#6CA726" transform="translate(0,0)"/>
<path d="" fill="#7FBA31" transform="translate(0,0)"/>
<path d="" fill="#6DAA28" transform="translate(0,0)"/>
<path d="" fill="#7DBC30" transform="translate(0,0)"/>
<path d="" fill="#67A722" transform="translate(0,0)"/>
<path d="" fill="#7EBB2F" transform="translate(0,0)"/>
<path d="" fill="#67A620" transform="translate(0,0)"/>
<path d="" fill="#6DAA28" transform="translate(0,0)"/>
<path d="" fill="#6CAA28" transform="translate(0,0)"/>
<path d="M0 0 C2 1 2 1 2 1 Z " fill="#6CAA24" transform="translate(155,157)"/>
<path d="M0 0 C2 1 2 1 2 1 Z " fill="#6CAA28" transform="translate(163,152)"/>
<path d="M0 0 C2 1 2 1 2 1 Z " fill="#7EB636" transform="translate(340,148)"/>
<path d="M0 0 C2 1 2 1 2 1 Z " fill="#7CB82F" transform="translate(338,147)"/>
<path d="M0 0 C2 1 2 1 2 1 Z " fill="#7CB82F" transform="translate(336,146)"/>
<path d="M0 0 C2 1 2 1 2 1 Z " fill="#7DBB30" transform="translate(334,145)"/>
<path d="M0 0 C2 1 2 1 2 1 Z " fill="#80B838" transform="translate(332,144)"/>
<path d="M0 0 C2 1 2 1 2 1 Z " fill="#7DB932" transform="translate(330,143)"/>
<path d="M0 0 C2 1 2 1 2 1 Z " fill="#7EB937" transform="translate(327,142)"/>
<path d="M0 0 C2 1 2 1 2 1 Z " fill="#237C37" transform="translate(162,142)"/>
<path d="M0 0 C2 1 2 1 2 1 Z " fill="#7DB92E" transform="translate(325,141)"/>
<path d="M0 0 C2 1 2 1 2 1 Z " fill="#7CB82D" transform="translate(320,139)"/>
<path d="M0 0 C2 1 2 1 2 1 Z " fill="#7EB738" transform="translate(274,124)"/>
<path d="M0 0 C2 1 2 1 2 1 Z " fill="#7AB02B" transform="translate(272,123)"/>
<path d="" fill="#257B38" transform="translate(0,0)"/>
<path d="" fill="#267A38" transform="translate(0,0)"/>
<path d="" fill="#257C37" transform="translate(0,0)"/>
<path d="" fill="#386D33" transform="translate(0,0)"/>
<path d="" fill="#277A39" transform="translate(0,0)"/>
<path d="" fill="#277A3B" transform="translate(0,0)"/>
<path d="" fill="#277A38" transform="translate(0,0)"/>
<path d="" fill="#267A3A" transform="translate(0,0)"/>
<path d="" fill="#237B37" transform="translate(0,0)"/>
<path d="" fill="#287838" transform="translate(0,0)"/>
<path d="" fill="#674E2C" transform="translate(0,0)"/>
<path d="" fill="#674D31" transform="translate(0,0)"/>
<path d="" fill="#257D39" transform="translate(0,0)"/>
<path d="" fill="#2B7A3C" transform="translate(0,0)"/>
<path d="" fill="#267A35" transform="translate(0,0)"/>
<path d="" fill="#28793A" transform="translate(0,0)"/>
<path d="" fill="#247B37" transform="translate(0,0)"/>
<path d="" fill="#237B37" transform="translate(0,0)"/>
<path d="" fill="#2A783C" transform="translate(0,0)"/>
<path d="" fill="#267A3A" transform="translate(0,0)"/>
<path d="M0 0 C2 1 2 1 2 1 Z " fill="#29783A" transform="translate(178,34)"/>
<path d="M0 0 C2 1 2 1 2 1 Z " fill="#257B38" transform="translate(176,33)"/>
<path d="M0 0 C2 1 2 1 2 1 Z " fill="#277839" transform="translate(173,32)"/>
<path d="M0 0 C2 1 2 1 2 1 Z " fill="#267C37" transform="translate(171,31)"/>
<path d="M0 0 C2 1 2 1 2 1 Z " fill="#277B33" transform="translate(166,29)"/>
<path d="M0 0 C2 1 2 1 2 1 Z " fill="#287A3B" transform="translate(163,28)"/>
<path d="M0 0 C2 1 2 1 2 1 Z " fill="#2C753A" transform="translate(157,26)"/>
<path d="" fill="#2D773D" transform="translate(0,0)"/>
<path d="" fill="#72AF24" transform="translate(0,0)"/>
<path d="" fill="#7FBA2E" transform="translate(0,0)"/>
<path d="" fill="#6EAC28" transform="translate(0,0)"/>
<path d="" fill="#7EB92E" transform="translate(0,0)"/>
<path d="" fill="#6FAE25" transform="translate(0,0)"/>
<path d="" fill="#7DB633" transform="translate(0,0)"/>
<path d="" fill="#6FAF23" transform="translate(0,0)"/>
<path d="" fill="#6DB023" transform="translate(0,0)"/>
<path d="" fill="#7DBB30" transform="translate(0,0)"/>
<path d="" fill="#7CBC2E" transform="translate(0,0)"/>
<path d="" fill="#6CA824" transform="translate(0,0)"/>
<path d="" fill="#7CBA2E" transform="translate(0,0)"/>
<path d="" fill="#6EAA29" transform="translate(0,0)"/>
<path d="" fill="#80BA35" transform="translate(0,0)"/>
<path d="" fill="#6DAC25" transform="translate(0,0)"/>
<path d="" fill="#6CAA25" transform="translate(0,0)"/>
<path d="" fill="#6DAB27" transform="translate(0,0)"/>
<path d="" fill="#7DB633" transform="translate(0,0)"/>
<path d="" fill="#6EAC28" transform="translate(0,0)"/>
<path d="" fill="#6CAA25" transform="translate(0,0)"/>
<path d="" fill="#7FBA30" transform="translate(0,0)"/>
<path d="" fill="#6CAA23" transform="translate(0,0)"/>
<path d="" fill="#7FBA30" transform="translate(0,0)"/>
<path d="" fill="#7CBA2C" transform="translate(0,0)"/>
<path d="" fill="#7CB930" transform="translate(0,0)"/>
<path d="" fill="#7CBA2E" transform="translate(0,0)"/>
<path d="" fill="#69A821" transform="translate(0,0)"/>
<path d="" fill="#7DBB2E" transform="translate(0,0)"/>
<path d="" fill="#7DBB2E" transform="translate(0,0)"/>
<path d="" fill="#7BB82D" transform="translate(0,0)"/>
<path d="" fill="#70AA25" transform="translate(0,0)"/>
<path d="" fill="#6EAD26" transform="translate(0,0)"/>
<path d="" fill="#7CB930" transform="translate(0,0)"/>
<path d="" fill="#6DAB27" transform="translate(0,0)"/>
<path d="" fill="#7CBA2E" transform="translate(0,0)"/>
<path d="" fill="#7BBA2E" transform="translate(0,0)"/>
<path d="" fill="#6DAC25" transform="translate(0,0)"/>
<path d="" fill="#7BBB2C" transform="translate(0,0)"/>
<path d="" fill="#6AA922" transform="translate(0,0)"/>
<path d="" fill="#7CBA2C" transform="translate(0,0)"/>
<path d="" fill="#6FAC24" transform="translate(0,0)"/>
<path d="" fill="#7CB930" transform="translate(0,0)"/>
<path d="" fill="#6EAA27" transform="translate(0,0)"/>
<path d="" fill="#7DBD2F" transform="translate(0,0)"/>
<path d="" fill="#6EAB25" transform="translate(0,0)"/>
<path d="" fill="#7CBA2C" transform="translate(0,0)"/>
<path d="" fill="#6EAA29" transform="translate(0,0)"/>
<path d="" fill="#7DBB2E" transform="translate(0,0)"/>
<path d="" fill="#6CAA25" transform="translate(0,0)"/>
<path d="" fill="#7EB830" transform="translate(0,0)"/>
<path d="" fill="#6CAA27" transform="translate(0,0)"/>
<path d="" fill="#7CBA2E" transform="translate(0,0)"/>
<path d="" fill="#68A722" transform="translate(0,0)"/>
<path d="" fill="#7FBB33" transform="translate(0,0)"/>
<path d="" fill="#7BBA2E" transform="translate(0,0)"/>
<path d="" fill="#7CB930" transform="translate(0,0)"/>
<path d="" fill="#7DBD2F" transform="translate(0,0)"/>
<path d="" fill="#7CBA2E" transform="translate(0,0)"/>
<path d="" fill="#7CBA2E" transform="translate(0,0)"/>
<path d="" fill="#67A521" transform="translate(0,0)"/>
<path d="" fill="#7CB930" transform="translate(0,0)"/>
<path d="" fill="#68A423" transform="translate(0,0)"/>
<path d="" fill="#7BBB2C" transform="translate(0,0)"/>
<path d="" fill="#6DA925" transform="translate(0,0)"/>
<path d="" fill="#7CBA2E" transform="translate(0,0)"/>
<path d="" fill="#6DA927" transform="translate(0,0)"/>
<path d="" fill="#7FBC2F" transform="translate(0,0)"/>
<path d="" fill="#6DAB27" transform="translate(0,0)"/>
<path d="" fill="#7CBA2E" transform="translate(0,0)"/>
<path d="" fill="#6CAA27" transform="translate(0,0)"/>
<path d="" fill="#7CBC2E" transform="translate(0,0)"/>
<path d="" fill="#6EAD26" transform="translate(0,0)"/>
<path d="" fill="#6FAE29" transform="translate(0,0)"/>
<path d="" fill="#7BBB2C" transform="translate(0,0)"/>
<path d="" fill="#7BBB2C" transform="translate(0,0)"/>
<path d="" fill="#6BA721" transform="translate(0,0)"/>
<path d="" fill="#7CBA2E" transform="translate(0,0)"/>
<path d="" fill="#6CA822" transform="translate(0,0)"/>
<path d="" fill="#7DB82D" transform="translate(0,0)"/>
<path d="" fill="#6DAB27" transform="translate(0,0)"/>
<path d="" fill="#7EB830" transform="translate(0,0)"/>
<path d="" fill="#6AA926" transform="translate(0,0)"/>
<path d="" fill="#7CBA2C" transform="translate(0,0)"/>
<path d="" fill="#6DAC25" transform="translate(0,0)"/>
<path d="" fill="#7DBB2E" transform="translate(0,0)"/>
<path d="" fill="#6AA922" transform="translate(0,0)"/>
<path d="" fill="#7CBA2A" transform="translate(0,0)"/>
<path d="" fill="#6EAC28" transform="translate(0,0)"/>
<path d="" fill="#7DBB2E" transform="translate(0,0)"/>
<path d="" fill="#7DBA32" transform="translate(0,0)"/>
<path d="" fill="#6DAA23" transform="translate(0,0)"/>
<path d="" fill="#7DBB2E" transform="translate(0,0)"/>
<path d="" fill="#7EB832" transform="translate(0,0)"/>
<path d="" fill="#6DA927" transform="translate(0,0)"/>
<path d="" fill="#7BB82D" transform="translate(0,0)"/>
<path d="" fill="#66A420" transform="translate(0,0)"/>
<path d="" fill="#6CAE22" transform="translate(0,0)"/>
<path d="" fill="#7DBB30" transform="translate(0,0)"/>
<path d="" fill="#6DAC25" transform="translate(0,0)"/>
<path d="" fill="#7CB930" transform="translate(0,0)"/>
<path d="" fill="#6EAA2B" transform="translate(0,0)"/>
<path d="" fill="#7BB82D" transform="translate(0,0)"/>
<path d="" fill="#6DAB27" transform="translate(0,0)"/>
<path d="" fill="#7CBA2E" transform="translate(0,0)"/>
<path d="" fill="#6CAA25" transform="translate(0,0)"/>
<path d="" fill="#7DBA32" transform="translate(0,0)"/>
<path d="" fill="#6DAB27" transform="translate(0,0)"/>
<path d="" fill="#7FB637" transform="translate(0,0)"/>
<path d="" fill="#6EAA2B" transform="translate(0,0)"/>
<path d="" fill="#6DAC25" transform="translate(0,0)"/>
<path d="" fill="#6CA72A" transform="translate(0,0)"/>
<path d="" fill="#7BBA2E" transform="translate(0,0)"/>
<path d="" fill="#6CAA25" transform="translate(0,0)"/>
<path d="" fill="#7EB835" transform="translate(0,0)"/>
<path d="" fill="#7BBA2E" transform="translate(0,0)"/>
<path d="" fill="#76BD2C" transform="translate(0,0)"/>
<path d="" fill="#65AE21" transform="translate(0,0)"/>
<path d="" fill="#7BB82D" transform="translate(0,0)"/>
<path d="" fill="#6CAA23" transform="translate(0,0)"/>
<path d="" fill="#7DB633" transform="translate(0,0)"/>
<path d="" fill="#71A930" transform="translate(0,0)"/>
<path d="" fill="#6DAC25" transform="translate(0,0)"/>
<path d="" fill="#7DBB30" transform="translate(0,0)"/>
<path d="" fill="#6EAB25" transform="translate(0,0)"/>
<path d="" fill="#7EB92C" transform="translate(0,0)"/>
<path d="" fill="#6FAC26" transform="translate(0,0)"/>
<path d="" fill="#7EB835" transform="translate(0,0)"/>
<path d="" fill="#6FAA2E" transform="translate(0,0)"/>
<path d="" fill="#7CBA2E" transform="translate(0,0)"/>
<path d="" fill="#6CAA27" transform="translate(0,0)"/>
<path d="" fill="#7FBC31" transform="translate(0,0)"/>
<path d="" fill="#6EAB25" transform="translate(0,0)"/>
<path d="" fill="#7DBB30" transform="translate(0,0)"/>
<path d="" fill="#6AA620" transform="translate(0,0)"/>
<path d="" fill="#7DBA34" transform="translate(0,0)"/>
<path d="" fill="#6FAC26" transform="translate(0,0)"/>
<path d="" fill="#7CBA2C" transform="translate(0,0)"/>
<path d="" fill="#6CAA23" transform="translate(0,0)"/>
<path d="" fill="#7EB92E" transform="translate(0,0)"/>
<path d="" fill="#7CBA2E" transform="translate(0,0)"/>
<path d="" fill="#6EAD26" transform="translate(0,0)"/>
<path d="" fill="#7CBA2E" transform="translate(0,0)"/>
<path d="" fill="#6FAC28" transform="translate(0,0)"/>
<path d="" fill="#7CB930" transform="translate(0,0)"/>
<path d="" fill="#6CA824" transform="translate(0,0)"/>
<path d="" fill="#7CBA2E" transform="translate(0,0)"/>
<path d="" fill="#7DBB30" transform="translate(0,0)"/>
<path d="" fill="#72AE2A" transform="translate(0,0)"/>
<path d="" fill="#7CB930" transform="translate(0,0)"/>
<path d="" fill="#6FAC28" transform="translate(0,0)"/>
<path d="" fill="#7CBA2E" transform="translate(0,0)"/>
<path d="" fill="#6FAC26" transform="translate(0,0)"/>
<path d="" fill="#80BB31" transform="translate(0,0)"/>
<path d="" fill="#6DAB27" transform="translate(0,0)"/>
<path d="" fill="#7FBA2E" transform="translate(0,0)"/>
<path d="" fill="#68A921" transform="translate(0,0)"/>
<path d="" fill="#7FB830" transform="translate(0,0)"/>
<path d="" fill="#68A624" transform="translate(0,0)"/>
<path d="" fill="#7FBA32" transform="translate(0,0)"/>
<path d="" fill="#6DAC25" transform="translate(0,0)"/>
<path d="" fill="#6FAE29" transform="translate(0,0)"/>
<path d="" fill="#7CBA2E" transform="translate(0,0)"/>
<path d="" fill="#7CBC2E" transform="translate(0,0)"/>
<path d="" fill="#7CB930" transform="translate(0,0)"/>
<path d="" fill="#6DA927" transform="translate(0,0)"/>
<path d="" fill="#7FBA30" transform="translate(0,0)"/>
<path d="" fill="#6AA922" transform="translate(0,0)"/>
<path d="" fill="#7EB830" transform="translate(0,0)"/>
<path d="" fill="#6DA925" transform="translate(0,0)"/>
<path d="" fill="#7EB92E" transform="translate(0,0)"/>
<path d="" fill="#6FAC26" transform="translate(0,0)"/>
<path d="" fill="#82BA31" transform="translate(0,0)"/>
<path d="" fill="#6EAA29" transform="translate(0,0)"/>
<path d="" fill="#7DBB30" transform="translate(0,0)"/>
<path d="" fill="#7DBB30" transform="translate(0,0)"/>
<path d="" fill="#6EAB25" transform="translate(0,0)"/>
<path d="" fill="#78BA2B" transform="translate(0,0)"/>
<path d="" fill="#6EAA27" transform="translate(0,0)"/>
<path d="" fill="#7EB92E" transform="translate(0,0)"/>
<path d="" fill="#7FBA2E" transform="translate(0,0)"/>
<path d="" fill="#6DAC25" transform="translate(0,0)"/>
<path d="" fill="#7CBA2E" transform="translate(0,0)"/>
<path d="" fill="#6FAC28" transform="translate(0,0)"/>
<path d="" fill="#257B37" transform="translate(0,0)"/>
<path d="" fill="#257B37" transform="translate(0,0)"/>
<path d="" fill="#257936" transform="translate(0,0)"/>
<path d="" fill="#277A37" transform="translate(0,0)"/>
<path d="" fill="#257B39" transform="translate(0,0)"/>
<path d="" fill="#227A38" transform="translate(0,0)"/>
<path d="" fill="#287B39" transform="translate(0,0)"/>
<path d="" fill="#277A37" transform="translate(0,0)"/>
<path d="" fill="#277A37" transform="translate(0,0)"/>
<path d="" fill="#257B37" transform="translate(0,0)"/>
<path d="" fill="#257B37" transform="translate(0,0)"/>
<path d="" fill="#257B37" transform="translate(0,0)"/>
<path d="" fill="#267D37" transform="translate(0,0)"/>
<path d="" fill="#267D37" transform="translate(0,0)"/>
<path d="" fill="#267C39" transform="translate(0,0)"/>
<path d="" fill="#237C37" transform="translate(0,0)"/>
<path d="" fill="#277A37" transform="translate(0,0)"/>
<path d="" fill="#277A39" transform="translate(0,0)"/>
<path d="" fill="#28783D" transform="translate(0,0)"/>
<path d="" fill="#247A36" transform="translate(0,0)"/>
<path d="" fill="#277A39" transform="translate(0,0)"/>
<path d="" fill="#277A37" transform="translate(0,0)"/>
<path d="" fill="#297A3B" transform="translate(0,0)"/>
<path d="" fill="#257B37" transform="translate(0,0)"/>
<path d="" fill="#327537" transform="translate(0,0)"/>
<path d="" fill="#267C39" transform="translate(0,0)"/>
<path d="" fill="#287939" transform="translate(0,0)"/>
<path d="" fill="#277B35" transform="translate(0,0)"/>
<path d="" fill="#257B37" transform="translate(0,0)"/>
<path d="" fill="#237C37" transform="translate(0,0)"/>
<path d="" fill="#257B37" transform="translate(0,0)"/>
<path d="" fill="#257D3B" transform="translate(0,0)"/>
<path d="" fill="#237C37" transform="translate(0,0)"/>
<path d="" fill="#267C39" transform="translate(0,0)"/>
<path d="" fill="#257B37" transform="translate(0,0)"/>
<path d="" fill="#257B37" transform="translate(0,0)"/>
<path d="" fill="#684D2D" transform="translate(0,0)"/>
<path d="" fill="#684D2F" transform="translate(0,0)"/>
<path d="" fill="#674C2C" transform="translate(0,0)"/>
<path d="" fill="#674C2C" transform="translate(0,0)"/>
<path d="" fill="#257E37" transform="translate(0,0)"/>
<path d="" fill="#664E2D" transform="translate(0,0)"/>
<path d="" fill="#674C2A" transform="translate(0,0)"/>
<path d="" fill="#267C39" transform="translate(0,0)"/>
<path d="" fill="#664E2B" transform="translate(0,0)"/>
<path d="" fill="#654D2C" transform="translate(0,0)"/>
<path d="" fill="#247A36" transform="translate(0,0)"/>
<path d="" fill="#277A37" transform="translate(0,0)"/>
<path d="" fill="#674A2B" transform="translate(0,0)"/>
<path d="" fill="#257C35" transform="translate(0,0)"/>
<path d="" fill="#257B37" transform="translate(0,0)"/>
<path d="" fill="#277A37" transform="translate(0,0)"/>
<path d="" fill="#277A37" transform="translate(0,0)"/>
<path d="" fill="#247A34" transform="translate(0,0)"/>
<path d="" fill="#267C39" transform="translate(0,0)"/>
<path d="" fill="#257B39" transform="translate(0,0)"/>
<path d="" fill="#257B39" transform="translate(0,0)"/>
<path d="" fill="#227B36" transform="translate(0,0)"/>
<path d="" fill="#237C37" transform="translate(0,0)"/>
<path d="" fill="#257B37" transform="translate(0,0)"/>
<path d="" fill="#257B37" transform="translate(0,0)"/>
<path d="" fill="#257B37" transform="translate(0,0)"/>
<path d="" fill="#267C39" transform="translate(0,0)"/>
<path d="" fill="#237C37" transform="translate(0,0)"/>
<path d="" fill="#237C35" transform="translate(0,0)"/>
<path d="" fill="#287B39" transform="translate(0,0)"/>
<path d="" fill="#277A37" transform="translate(0,0)"/>
<path d="" fill="#277B35" transform="translate(0,0)"/>
<path d="" fill="#257B37" transform="translate(0,0)"/>
<path d="" fill="#257B39" transform="translate(0,0)"/>
<path d="" fill="#247A36" transform="translate(0,0)"/>
</svg>
